<?xml version="1.0" encoding="utf-8" ?>
<svg xmlns="http://www.w3.org/2000/svg" xmlns:xlink="http://www.w3.org/1999/xlink" width="757" height="712">
	<path fill="#FEFEF2" d="M0 0L360.887 0L385.625 0L756.353 0C756.675 0.567193 756.881 0.975253 756.932 1.6395C757.54 9.53876 756.998 17.9019 757 25.8581L757.007 75.2892L757.011 221.418L757.009 254.248C757.009 257.747 757.631 264.589 756.791 267.685Q756.683 268.081 756.554 268.471C757.299 270.433 757.424 274.957 756.654 276.931C756.607 277.05 756.539 277.159 756.481 277.273C757.153 278.879 757 280.583 757.007 282.293L757.003 618.072L756.998 687.152C756.997 690.8 757.597 708.683 756.77 711.176C756.675 711.463 756.498 711.742 756.353 712L390.524 712L355.816 712L0 712L0 343.291L0 313.475L0 0ZM166.882 94.3573C162.006 92.2669 155.603 90.2784 151.631 86.6437C145.781 81.2913 147.072 74.3015 137.962 71.642C133.535 72.6606 131.015 74.0701 128.525 78.0301C126.331 81.5205 124.629 85.8525 121.744 88.8201C118.129 92.5385 110.199 95.0322 105.477 97.4758C99.3426 100.65 93.9362 104.422 88.977 109.248C94.6476 115.874 101.756 121.153 108.906 126.07C103.032 139.082 105.089 140.953 103.993 153.975L103.65 154.275C100.373 157.089 96.6305 159.302 93.3174 162.066C83.4375 170.31 78.5786 182.117 77.5838 194.75C77.3372 197.881 77.3534 200.82 77.8004 203.926Q67.5077 204.133 57.2138 204.001C53.2147 203.987 48.9057 203.641 44.9563 204.333C43.6183 204.567 42.5314 204.946 41.5639 205.925C39.8037 207.706 39.2314 210.465 39.3799 212.889C39.5129 215.057 40.3485 217.332 42.0948 218.714C42.9811 219.416 44.0712 219.763 45.1739 219.944C48.4675 220.485 52.096 220.184 55.4406 220.198C62.251 220.226 69.0714 220.219 75.8805 220.342C72.7358 225.36 69.3302 230.131 66.4472 235.316C60.7068 245.639 55.9913 256.483 50.802 267.079C47.7837 273.242 44.3596 279.095 41.6638 285.43C30.9902 291.272 23.7504 298.631 20.2377 310.572C15.8387 325.525 20.2043 341.864 21.906 357.009C29.3209 357.174 36.7936 356.821 44.1931 357.212C35.4974 369.441 32.6525 381.058 35.1801 396.043C37.0877 407.353 43.2047 418.298 52.6731 424.958Q52.9211 425.133 53.1731 425.301C52.7982 446.809 59.0222 467.918 74.2537 483.678C78.3816 487.949 83.1151 491.189 87.9483 494.581C81.2695 500.079 73.6252 503.522 66.6527 508.453C72.8586 516.879 77.617 525.927 82.5582 535.12Q91.2216 551.59 100.251 567.862Q109.781 584.802 119.91 601.39C124.37 608.821 129.155 616.319 133.075 624.047L187.844 624.026C195.558 631.481 204.875 637.175 213.853 642.964C259.791 672.585 319.402 694.04 374.501 693.086C387.855 692.855 401.66 691.221 414.743 688.543C455.908 680.118 520.848 655.615 550.267 625.312C553.336 622.151 556.05 618.592 558.815 615.166Q573.774 615.015 588.731 614.698C616.456 614.073 640.959 611.209 661.637 590.148C677.178 574.319 686.98 552.045 686.768 529.702C686.602 512.282 680.69 496.904 671.26 482.487C676.042 478.899 680.198 473.694 684.163 469.248C704.298 446.666 721.766 418.762 726.199 388.34C729.361 366.647 724.525 336.66 711.164 318.953C708.493 315.414 705.387 312.229 702.209 309.147C712.36 308.7 721.484 306.558 728.554 298.727C735.74 290.768 738.195 278.595 737.629 268.162C736.766 252.263 727.372 236.008 715.664 225.558C710.65 221.083 704.297 217.037 697.684 215.552C687.248 213.208 668.5 214.743 656.957 214.726L573.448 214.467C568.462 214.458 553.428 215.383 549.613 214.179C547.728 213.585 547.266 211.971 546.709 210.28C545.619 206.922 545.052 204.012 545.354 200.467L545.324 200.728L545.857 200.568L545.486 200.912C547.18 201.685 552.482 201.272 554.62 201.444C559.275 201.819 563.881 202.665 568.543 203.002C580.256 203.85 592.313 203.828 604.049 203.665C607.842 203.613 611.036 203.417 613.793 200.545C620.53 193.526 618.945 183.428 618.813 174.516C622.293 171.293 623.502 172.92 626.991 171.425C632.511 176.517 635.742 183.14 640.868 188.435C646.746 186.834 652.655 186.493 658.158 189.494C660.213 190.614 662.014 192.195 663.551 193.948C667.059 198.518 667.834 204.022 669.735 209.295C673.618 209.601 687.681 210.618 690.368 208.67C690.898 208.285 690.802 208.014 690.92 207.416C689.576 203.832 684.787 201.264 681.519 199.758C679.084 190.338 675.614 183.507 666.951 178.429C662.097 175.583 656.53 173.978 650.967 173.291C650.871 173.201 650.773 173.114 650.679 173.022C647.22 169.63 640.893 157.312 637.284 152.071Q624.769 134.119 609.849 118.111C598.344 105.682 584.947 94.5043 571.42 84.3582C515.81 42.6455 448.684 17.8708 378.867 17.4864C369.81 17.4365 360.748 17.3534 351.705 17.9605C283.316 22.5512 217.949 48.2996 166.882 94.3573ZM756.481 277.273C755.215 293.542 747.491 306.931 735.032 317.351C734.619 317.697 734.199 317.977 733.749 318.273C735.328 319.989 736.141 323.655 736.856 325.905C741.937 341.883 745.426 361.661 744.813 378.367C743.582 411.914 733.983 435.703 714.019 462.397C708.865 469.288 700.529 477.867 696.597 485.018C698.018 490.045 699.978 494.943 701.172 500.028C708.066 529.394 706.134 556.834 691.259 583.367C678.835 605.528 659.107 622.991 634.334 629.89C624.682 632.578 615.041 633.055 605.106 633.205C608.681 640.091 610.531 646.473 608.154 654.164C606.512 659.476 602.949 663.458 598.034 665.97C595.431 667.3 592.277 667.569 589.85 669.193C589.793 673.526 589.976 678.682 586.674 682.023C583.304 685.433 577.848 686.803 573.155 686.663C567.61 686.498 560.923 684.635 557.117 680.37C554.302 677.215 553.996 673.35 553.739 669.34C548.385 668.355 533.41 667.579 528.201 668.843C521.871 670.378 516.264 674.998 510.153 677.289C503.708 679.704 497.103 681.671 490.67 684.125C479.77 688.282 469.038 692.832 458.04 696.743Q437.598 703.791 416.453 708.316C408.417 709.971 399.969 711.535 391.732 711.248L390.524 712L756.353 712C756.498 711.742 756.675 711.463 756.77 711.176C757.597 708.683 756.997 690.8 756.998 687.152L757.003 618.072L757.007 282.293C757 280.583 757.153 278.879 756.481 277.273ZM0 343.291L0 712L355.816 712L354.538 711.254C319.727 709.991 277.602 697.075 245.825 682.786Q228.314 674.704 211.671 664.958C205.023 661.095 198.077 657.362 191.881 652.795C188.375 650.211 185.522 646.817 182.206 644.002C163 644.043 143.758 643.766 124.56 644.198C118.695 636.433 113.876 627.754 108.419 619.678C102.875 611.472 96.7548 603.631 91.3807 595.321C82.2599 581.217 75.4777 565.88 69.7621 550.126Q61.6332 550.404 53.5157 550.917C49.7066 551.167 45.5599 551.827 41.7604 551.398C39.8394 551.181 38.052 550.623 36.3404 549.727C28.5304 545.636 23.5058 536.772 20.9759 528.643C19.0857 522.569 17.6252 512.936 20.074 506.892C21.0607 504.457 22.9668 502.477 24.0047 500.072C25.4566 496.707 25.976 493.031 27.7449 489.768C31.1605 483.469 38.2091 481.352 44.6669 479.5C41.14 470.075 38.2804 461.022 36.3056 451.151C35.3454 446.352 35.922 440.072 34.0417 435.641C32.7225 432.532 29.325 430.197 27.2183 427.579C15.9989 413.636 12.4859 394.525 14.2404 377.115C5.56472 367.451 1.32312 357.112 0.755501 344.002L0 343.291ZM385.625 0L386.252 0.733905C389.664 1.05949 393.079 1.05355 396.489 1.35778Q415.517 2.93278 434.31 6.30082C493.98 17.3917 551.335 45.3723 598.104 83.8577C605.043 89.5671 611.619 95.6594 618.276 101.688C623.92 106.8 629.809 111.659 634.667 117.563Q635.638 118.752 636.532 120C640.93 120.731 645.229 121.113 649.687 121.235C652.629 119.418 655.509 117.639 658.767 116.428C666.585 113.522 677.614 113.518 685.649 115.459C690.714 116.683 695.217 119.612 697.957 124.11C698.73 125.378 699.335 126.806 699.883 128.181C705.185 130.561 710.25 132.354 712.502 138.285C713.282 140.337 713.867 143.211 715.069 145.001C716.21 146.703 718.002 148.076 718.927 149.908C721.604 155.21 721.988 165.586 719.788 171.05C719.603 171.508 719.576 171.525 719.351 171.883C726.494 172.386 735.024 174.916 739.847 180.55C744.286 185.735 745.596 192.791 745.003 199.432C744.46 205.504 741.502 213.356 736.897 217.532C736.675 217.733 736.327 217.96 736.094 218.122C742.98 221.952 751.011 243.019 753.303 251.055C754.194 254.181 755.069 257.283 755.526 260.51C755.879 262.998 755.826 266.116 756.554 268.471Q756.683 268.081 756.791 267.685C757.631 264.589 757.009 257.747 757.009 254.248L757.011 221.418L757.007 75.2892L757 25.8581C756.998 17.9019 757.54 9.53876 756.932 1.6395C756.881 0.975253 756.675 0.567193 756.353 0L385.625 0ZM0 0L0 313.475L0.785357 313.404C0.514958 301.625 9.43107 284.285 18.7691 277.115C21.735 274.838 26.6458 273.246 28.727 270.142C30.6424 267.285 31.7565 263.608 33.0913 260.43C35.9268 253.679 39.2191 246.311 43.5032 240.36C37.3648 239.756 31.351 238.708 25.9613 235.533C21.0674 232.651 18.2578 228.012 16.8868 222.62C15.0622 215.443 15.1991 206.291 19.1139 199.79C22.5994 194.001 29.9119 190.204 36.2608 188.6C34.1605 187.675 32.2852 186.525 30.6639 184.881C25.9906 180.143 23.6116 173.431 23.6153 166.839C23.6198 158.578 26.0624 149.41 32.0737 143.432C34.2194 141.298 36.7864 139.847 39.7527 139.217C44.1768 138.279 49.8558 138.991 54.4429 139.041L80.5082 139.229C81.2229 136.869 81.8655 134.497 82.9938 132.293C80.2561 130.516 77.5471 128.689 75.1924 126.413C70.0225 121.416 66.8463 115.069 66.796 107.825C66.7513 101.395 68.5798 94.2393 73.2663 89.5969C79.9741 82.9523 89.8414 83.9173 98.4907 83.923C111.05 73.5095 104.807 68.1912 111.843 59.1752C115.869 54.0169 122.444 51.34 128.774 50.5114C138.11 49.2891 150.786 49.2301 158.568 55.2396C164.448 59.7803 166.769 66.6388 167.71 73.732C174.957 66.3982 183.151 60.6147 191.693 54.9042C227.759 30.7954 269.936 14.3393 312.496 6.21696Q330.38 2.91126 348.497 1.31226C352.692 0.980833 356.897 1.07389 361.099 0.713594L360.887 0L0 0Z"/>
	<path fill="#04D6FB" d="M360.887 0L385.625 0L386.252 0.733905C377.905 0.523473 369.442 0.400914 361.099 0.713594L360.887 0Z"/>
	<path fill="#8FFCFE" d="M354.538 711.254Q373.135 711.107 391.732 711.248L390.524 712L355.816 712L354.538 711.254Z"/>
	<path fill="#000140" d="M708.276 188.626C711.474 188.404 714.477 188.113 717.324 189.901C719.156 191.051 720.44 193.036 720.788 195.165C721.06 196.828 720.729 198.586 719.725 199.957C718.318 201.88 716.867 202.52 714.571 202.898C712.013 203.144 709.071 203.26 706.67 202.253C704.725 201.437 703.2 200.024 702.409 198.05C701.736 196.369 701.663 194.496 702.478 192.85C703.677 190.429 705.817 189.377 708.276 188.626Z"/>
	<path fill="#000140" d="M52.8675 161.252C55.9537 161.152 60.026 160.577 62.9704 161.531Q63.2476 161.621 63.514 161.74Q63.7804 161.858 64.0329 162.004Q64.2855 162.149 64.5215 162.32Q64.7576 162.492 64.9745 162.686Q65.1914 162.881 65.3869 163.097Q65.5823 163.314 65.7542 163.549Q65.9261 163.785 66.0725 164.037Q66.2189 164.289 66.3383 164.555C67.3542 166.864 66.9776 169.733 66.1042 172.022C65.0525 174.779 63.7337 176.202 61.0798 177.418C57.4051 177.644 52.886 178.019 49.6706 175.897C47.8492 174.695 46.7343 172.812 46.4166 170.663Q46.3517 170.193 46.3329 169.718Q46.3142 169.243 46.3419 168.769Q46.3696 168.295 46.4434 167.826Q46.5172 167.357 46.6365 166.897Q46.7557 166.437 46.9193 165.991Q47.0828 165.545 47.2891 165.118Q47.4954 164.69 47.7425 164.284Q47.9895 163.879 48.275 163.499C49.5891 161.776 50.7782 161.499 52.8675 161.252Z"/>
	<path fill="#000140" d="M570.089 626.126C573.453 628.507 573.422 635.232 575.751 638.787C578.398 639.751 582.464 640.635 584.47 642.626C585.084 643.236 585.025 643.383 584.997 644.193C583.001 646.635 577.527 647.813 574.57 648.85C573.7 652.808 573.156 657.281 570.014 660.135C566.244 656.334 567.767 652.488 565.538 649.897C564.28 648.435 556.875 646.1 553.635 643.589C557.392 641.607 561.242 639.82 564.982 637.8C566.019 633.259 566.696 629.532 570.089 626.126Z"/>
	<path fill="#000140" d="M52.5963 498.991C53.6517 499.181 54.8023 499.451 55.6266 500.175C58.4786 502.679 58.3333 507.679 58.4255 511.145C60.3658 511.302 62.3415 511.422 64.2454 511.845C66.6868 512.386 69.1832 513.137 70.5809 515.34C70.6909 516.306 70.7664 516.845 70.1986 517.685C68.0095 520.923 61.8022 521.291 58.2409 521.812C58.086 523.75 58.145 526.311 57.3125 528.061C56.5885 529.583 55.4776 530.025 53.9644 530.578C52.6959 530.543 51.3497 530.277 50.3166 529.499C48.0312 527.776 47.9185 524.37 47.526 521.778Q46.4885 521.562 45.4578 521.316C42.2029 520.534 37.9317 519.468 36.0863 516.456C36.019 515.484 35.9727 515.006 36.648 514.238C38.6966 511.908 44.4374 511.224 47.3677 511.05C47.4961 508.925 47.4667 506.458 47.9974 504.395C48.7084 501.633 50.1911 500.352 52.5963 498.991Z"/>
	<path fill="#000140" d="M672.121 137.929C672.514 137.913 672.907 137.89 673.301 137.898C675.358 137.935 677.877 138.415 679.317 140.018C681.801 142.784 680.972 148.391 680.895 151.907C685.755 151.851 690.999 152.168 695.31 154.702C696.647 155.487 697.448 156.284 697.877 157.778C697.803 158.746 697.627 159.37 696.916 160.049C693.265 163.535 685.433 163.389 680.682 163.466C680.712 167.274 682.349 173.838 679.885 176.99C678.75 178.441 677.049 178.848 675.325 179.135Q674.6 179.184 673.874 179.203C671.741 179.253 669.596 179.08 668.043 177.439C665.227 174.465 666.982 167.225 667.181 163.471C665.094 163.423 662.997 163.387 660.913 163.254C655.91 162.934 652.495 161.759 649.122 157.942C649.692 157.027 650.265 156.125 651.032 155.358C654.888 151.503 661.444 152.305 666.455 152.276C666.477 149.001 665.557 144.483 666.963 141.454C667.963 139.299 670.012 138.617 672.121 137.929Z"/>
	<path fill="#FED4A9" d="M626.991 171.425C632.511 176.517 635.742 183.14 640.868 188.435C646.746 186.834 652.655 186.493 658.158 189.494C660.213 190.614 662.014 192.195 663.551 193.948C667.059 198.518 667.834 204.022 669.735 209.295C664.2 210.087 658.145 209.647 652.546 209.65Q635.825 209.718 619.107 209.419C601.298 209.083 583.438 209.482 565.625 209.597C561.449 209.624 549.973 208.784 546.709 210.28C545.619 206.922 545.052 204.012 545.354 200.467L545.324 200.728L545.857 200.568L545.486 200.912C547.18 201.685 552.482 201.272 554.62 201.444C559.275 201.819 563.881 202.665 568.543 203.002C580.256 203.85 592.313 203.828 604.049 203.665C607.842 203.613 611.036 203.417 613.793 200.545C620.53 193.526 618.945 183.428 618.813 174.516C622.293 171.293 623.502 172.92 626.991 171.425Z"/>
	<path fill="#FEFEF2" d="M640.868 188.435C646.746 186.834 652.655 186.493 658.158 189.494C660.213 190.614 662.014 192.195 663.551 193.948C662.464 194.534 660.804 194.354 659.561 194.548C656.051 195.097 652.561 196.078 649.021 196.401C645.898 196.686 642.673 196.467 639.533 196.483C635.204 196.504 630.89 196.696 626.566 196.907C630.674 193.057 635.845 190.823 640.868 188.435Z"/>
	<path fill="#000140" d="M166.882 94.3573C217.949 48.2996 283.316 22.5512 351.705 17.9605C360.748 17.3534 369.81 17.4365 378.867 17.4864C448.684 17.8708 515.81 42.6455 571.42 84.3582C584.947 94.5043 598.344 105.682 609.849 118.111Q624.769 134.119 637.284 152.071C640.893 157.312 647.22 169.63 650.679 173.022C650.773 173.114 650.871 173.201 650.967 173.291C656.53 173.978 662.097 175.583 666.951 178.429C675.614 183.507 679.084 190.338 681.519 199.758C684.787 201.264 689.576 203.832 690.92 207.416C690.802 208.014 690.898 208.285 690.368 208.67C687.681 210.618 673.618 209.601 669.735 209.295C667.834 204.022 667.059 198.518 663.551 193.948C662.014 192.195 660.213 190.614 658.158 189.494C652.655 186.493 646.746 186.834 640.868 188.435C635.742 183.14 632.511 176.517 626.991 171.425C623.502 172.92 622.293 171.293 618.813 174.516C618.945 183.428 620.53 193.526 613.793 200.545C611.036 203.417 607.842 203.613 604.049 203.665C592.313 203.828 580.256 203.85 568.543 203.002C563.881 202.665 559.275 201.819 554.62 201.444C552.482 201.272 547.18 201.685 545.486 200.912L545.857 200.568L545.324 200.728L545.354 200.467C545.052 204.012 545.619 206.922 546.709 210.28C547.266 211.971 547.728 213.585 549.613 214.179C553.428 215.383 568.462 214.458 573.448 214.467L656.957 214.726C668.5 214.743 687.248 213.208 697.684 215.552C704.297 217.037 710.65 221.083 715.664 225.558C727.372 236.008 736.766 252.263 737.629 268.162C738.195 278.595 735.74 290.768 728.554 298.727C721.484 306.558 712.36 308.7 702.209 309.147C705.387 312.229 708.493 315.414 711.164 318.953C724.525 336.66 729.361 366.647 726.199 388.34C721.766 418.762 704.298 446.666 684.163 469.248C680.198 473.694 676.042 478.899 671.26 482.487C680.69 496.904 686.602 512.282 686.768 529.702C686.98 552.045 677.178 574.319 661.637 590.148C640.959 611.209 616.456 614.073 588.731 614.698Q573.774 615.015 558.815 615.166C556.05 618.592 553.336 622.151 550.267 625.312C520.848 655.615 455.908 680.118 414.743 688.543C401.66 691.221 387.855 692.855 374.501 693.086C319.402 694.04 259.791 672.585 213.853 642.964C204.875 637.175 195.558 631.481 187.844 624.026L133.075 624.047C129.155 616.319 124.37 608.821 119.91 601.39Q109.781 584.802 100.251 567.862Q91.2216 551.59 82.5582 535.12C77.617 525.927 72.8586 516.879 66.6527 508.453C73.6252 503.522 81.2695 500.079 87.9483 494.581C83.1151 491.189 78.3816 487.949 74.2537 483.678C59.0222 467.918 52.7982 446.809 53.1731 425.301Q52.9211 425.133 52.6731 424.958C43.2047 418.298 37.0877 407.353 35.1801 396.043C32.6525 381.058 35.4974 369.441 44.1931 357.212C36.7936 356.821 29.3209 357.174 21.906 357.009C20.2043 341.864 15.8387 325.525 20.2377 310.572C23.7504 298.631 30.9902 291.272 41.6638 285.43C44.3596 279.095 47.7837 273.242 50.802 267.079C55.9913 256.483 60.7068 245.639 66.4472 235.316C69.3302 230.131 72.7358 225.36 75.8805 220.342C69.0714 220.219 62.251 220.226 55.4406 220.198C52.096 220.184 48.4675 220.485 45.1739 219.944C44.0712 219.763 42.9811 219.416 42.0948 218.714C40.3485 217.332 39.5129 215.057 39.3799 212.889C39.2314 210.465 39.8037 207.706 41.5639 205.925C42.5314 204.946 43.6183 204.567 44.9563 204.333C48.9057 203.641 53.2147 203.987 57.2138 204.001Q67.5077 204.133 77.8004 203.926C77.3534 200.82 77.3372 197.881 77.5838 194.75C78.5786 182.117 83.4375 170.31 93.3174 162.066C96.6305 159.302 100.373 157.089 103.65 154.275L103.993 153.975C105.089 140.953 103.032 139.082 108.906 126.07C101.756 121.153 94.6476 115.874 88.977 109.248C93.9362 104.422 99.3426 100.65 105.477 97.4758C110.199 95.0322 118.129 92.5385 121.744 88.8201C124.629 85.8525 126.331 81.5205 128.525 78.0301C131.015 74.0701 133.535 72.6606 137.962 71.642C147.072 74.3015 145.781 81.2913 151.631 86.6437C155.603 90.2784 162.006 92.2669 166.882 94.3573ZM346.345 282.849C343.15 284.255 335.662 283.968 331.887 284.413C321.67 285.616 311.522 287.681 301.366 289.312C301.589 291.304 301.751 293.323 302.1 295.297C314.496 293.586 327.354 293.171 339.852 292.744C343.074 289.878 345.767 287.343 346.345 282.849Z"/>
	<path fill="#FF6EBD" d="M155.012 108.242C160.965 108.951 166.451 110.377 172.176 112.096C168.352 112.76 163.649 114.056 159.782 113.765C160.238 113.414 159.998 113.523 160.654 113.404C161.452 113.259 162.301 113.193 163.062 112.901C163.781 112.624 163.797 112.517 164.074 111.847L163.54 111.303C160.63 110.526 157.819 109.327 155.012 108.242Z"/>
	<path fill="#8FFCFE" d="M511.24 530.237C511.087 527.327 511.319 520.188 513.26 517.881C513.64 517.431 513.836 517.563 514.368 517.54C516.965 519.558 517.713 525.394 518.397 528.426L517.773 528.439C517.213 526.999 516.675 525.683 515.854 524.364C514.657 526.162 513.139 529.243 511.24 530.237Z"/>
	<path fill="#FEFEF2" d="M522.282 531.717C526.83 533.042 530.946 534.375 535.154 536.609C532.302 537.991 529.441 539.045 526.34 539.727C524.387 538.432 520.982 537.713 519.63 536.044C520.007 534.707 520.975 534.563 521.438 533.546C521.86 532.619 521.421 532.545 522.282 531.717Z"/>
	<path fill="#04ADEF" d="M515.854 524.364C516.675 525.683 517.213 526.999 517.773 528.439L518.397 528.426C518.733 529.442 518.999 530.726 519.689 531.536C517.432 532.371 515.498 534.628 513.352 535.173C513.538 536.52 513.627 537.701 513.474 539.055C513.414 538.821 513.32 538.403 513.216 538.195C512.711 537.183 504.02 536.356 502.273 535.846C504.55 535.177 509.465 535.47 510.912 533.424C511.703 532.307 511.377 531.508 511.24 530.237C513.139 529.243 514.657 526.162 515.854 524.364Z"/>
	<path fill="#006FC2" d="M513.352 535.173C513.318 535.076 513.278 534.981 513.252 534.882C512.909 533.595 514.325 529.72 515.091 528.608C515.583 527.894 515.919 527.592 516.757 527.421L517.773 528.439L518.397 528.426C518.733 529.442 518.999 530.726 519.689 531.536C517.432 532.371 515.498 534.628 513.352 535.173Z"/>
	<path fill="#FEE0F4" d="M644.256 459.438C648.905 457.02 662.125 455.457 668.008 454.121C670.861 453.473 674.326 451.784 677.182 451.851C669.5 457.368 655.881 461.675 646.421 460.119C645.666 459.995 644.949 459.759 644.256 459.438Z"/>
	<path fill="#04ADEF" d="M519.689 531.536C520.813 531.338 521.189 531.112 522.233 531.673C522.253 531.684 522.266 531.702 522.282 531.717C521.421 532.545 521.86 532.619 521.438 533.546C520.975 534.563 520.007 534.707 519.63 536.044C520.982 537.713 524.387 538.432 526.34 539.727C524.843 539.866 523.309 539.965 521.978 539.157L519.908 537.885C519.342 539.516 520.236 543.284 520.343 545.199Q516.967 545.387 513.588 545.514C513.468 543.352 513.433 541.22 513.474 539.055C513.627 537.701 513.538 536.52 513.352 535.173C515.498 534.628 517.432 532.371 519.689 531.536Z"/>
	<path fill="#FE2F86" d="M613.678 235.074C618.045 232.891 628.512 233.684 633.201 235.168C633.295 235.198 633.389 235.232 633.483 235.264C632.156 237.235 631.06 239.349 629.92 241.431C625.107 240.43 620.639 240.462 615.785 241.135L613.678 235.074Z"/>
	<path fill="#FAFDAA" d="M504.799 182.594C506.775 183.76 507.789 185.004 508.412 187.236C508.738 188.406 508.943 189.634 509.17 190.828L508.949 193.533C508.244 201.752 500.088 207.988 494.95 213.669C494.428 213.099 494.102 212.759 493.889 211.992C492.746 207.883 499.723 200.056 501.988 196.655C505.043 192.068 505.906 188.035 504.799 182.594Z"/>
	<path fill="#B01DA4" d="M610.783 226.429C620.391 226.316 630.683 226.143 640.226 227.231C638.066 229.81 635.889 232.973 633.483 235.264C633.389 235.232 633.295 235.198 633.201 235.168C628.512 233.684 618.045 232.891 613.678 235.074L610.783 226.429Z"/>
	<path fill="#FAFDAA" d="M301.167 283.602C308.752 281.428 329.578 277.604 337.261 277.54C339.366 277.522 341.753 277.64 343.597 278.745C345.221 279.718 345.927 281.058 346.345 282.849C343.15 284.255 335.662 283.968 331.887 284.413C321.67 285.616 311.522 287.681 301.366 289.312C301.24 287.416 301.224 285.502 301.167 283.602Z"/>
	<path fill="#B01DA4" d="M613.314 391.045Q614.483 387.091 615.873 383.208C615.927 383.39 615.989 383.57 616.036 383.754C617.068 387.762 611.937 389.907 617.367 393.581C618.545 394.378 621.308 396.64 622.737 396.481C623.739 395.115 624.761 393.169 626.39 392.537L626.727 392.717L623.524 396.781C624.888 397.868 626.172 398.871 627.737 399.667L627.702 400.211Q620.497 408.548 612.989 416.613L609.601 413.886L606.615 409.843C609.059 403.632 611.207 397.376 613.314 391.045Z"/>
	<path fill="#F23673" d="M613.314 391.045Q614.483 387.091 615.873 383.208C615.927 383.39 615.989 383.57 616.036 383.754C617.068 387.762 611.937 389.907 617.367 393.581C618.545 394.378 621.308 396.64 622.737 396.481C623.739 395.115 624.761 393.169 626.39 392.537L626.727 392.717L623.524 396.781C624.888 397.868 626.172 398.871 627.737 399.667L627.702 400.211Q620.497 408.548 612.989 416.613L609.601 413.886C613.632 408.342 618.277 403.281 622.091 397.565C618.921 395.622 616.053 393.568 613.314 391.045Z"/>
	<path fill="#FAFDAA" d="M297.229 176.401C304.936 176.295 313.21 174.251 320.696 172.492C327.895 170.799 341.711 165.54 348.779 167.652C351.417 168.44 352.928 170.309 354.146 172.662C336.282 174.146 319.273 180.3 301.357 181.015C300.091 179.378 298.649 177.902 297.229 176.401Z"/>
	<path fill="#B9FA09" fill-opacity="0.98823529" d="M346.345 282.849C345.767 287.343 343.074 289.878 339.852 292.744C327.354 293.171 314.496 293.586 302.1 295.297C301.751 293.323 301.589 291.304 301.366 289.312C311.522 287.681 321.67 285.616 331.887 284.413C335.662 283.968 343.15 284.255 346.345 282.849Z"/>
	<path fill="#FEFEF2" d="M32.3593 336.963C40.5395 337.59 48.9914 337.156 57.2129 337.193L108.739 337.403C112.255 337.438 115.748 337.442 119.261 337.248C120.909 337.158 123.232 336.604 124.817 336.772C125.087 336.801 125.308 337.006 125.554 337.122C125.626 339.106 125.968 341.082 126.238 343.047C114.996 343.346 103.687 343.152 92.4397 343.145L32.9322 343.081C32.6647 341.057 32.5375 338.998 32.3593 336.963Z"/>
	<path fill="#FEFEF2" d="M132.055 105.796C134.648 98.8081 134.887 91.4984 137.034 84.5026C139.146 91.207 140.117 98.8184 141.908 105.782L155.012 108.242C157.819 109.327 160.63 110.526 163.54 111.303L164.074 111.847C163.797 112.517 163.781 112.624 163.062 112.901C162.301 113.193 161.452 113.259 160.654 113.404C159.998 113.523 160.238 113.414 159.782 113.765C153.932 114.42 147.984 114.991 142.215 116.178C140.768 120.574 139.651 125.412 138.84 129.972C138.279 133.125 138.336 136.232 137.101 139.236C134.609 131.644 134.931 123.816 131.881 116.252C122.971 114.731 113.905 113.724 105.05 111.966C113.765 108.995 123.227 108.368 132.055 105.796Z"/>
	<path fill="#04D6FB" d="M196.955 218.586C198.33 218.542 199.704 218.614 201.078 218.663C201.581 232.168 204.569 247.412 214.858 257C218.243 260.154 222.1 262.701 226.172 264.879C234.016 269.074 242.47 272.118 250.657 275.572C256.462 278.02 271.139 285.036 276.775 285.73C277.93 287.439 279.442 289.391 280.152 291.323C280.414 292.035 280.555 292.247 280.237 292.959C279.837 293.042 279.488 293.108 279.077 293.09C277.606 293.028 276.045 292.485 274.673 291.962C267.271 289.141 260.064 285.434 252.742 282.356C243.162 278.33 233.343 274.977 224.189 269.992C219.266 267.31 214.645 264.235 210.667 260.258C199.691 249.284 196.913 233.545 196.955 218.586Z"/>
	<path fill="#FEFEF2" d="M625.14 310.177C642.466 302.647 658.065 301.778 675.864 308.879C685.568 312.751 692.756 318.575 699.909 326.009C702.741 328.953 705.579 331.925 707.136 335.777C708.163 338.318 708.407 340.663 708.04 343.361L706.852 343.832C704.424 342.351 701.433 336.702 699.483 334.224C698.136 332.511 696.631 330.921 695.134 329.339L692.4 326.483C691.435 325.258 690.144 324.384 688.799 323.639C681.85 318.855 674.715 315.597 666.855 312.672L665.026 312.131C659.622 311.196 654.738 310.528 649.226 310.708C640.051 311.008 635.717 313.353 628.305 318.575Q626.859 319.596 625.425 320.635L625.14 310.177Z"/>
	<path fill="#04ADEF" d="M592.483 360.197C593.601 359.964 594.871 360.267 596.035 360.101C598.53 359.747 600.443 358.855 601.96 356.824C597.871 380.028 588.537 401.851 577.064 422.304C577.331 413.869 577.366 405.415 577.72 396.985C575.88 390.001 578.835 364.996 576.401 360.676C576.031 360.019 575.403 360.004 574.718 359.778C580.714 359.006 586.486 360.144 592.483 360.197Z"/>
	<path fill="#081F7E" d="M574.718 359.778C580.714 359.006 586.486 360.144 592.483 360.197C589.247 372.878 583.798 385.418 577.72 396.985C575.88 390.001 578.835 364.996 576.401 360.676C576.031 360.019 575.403 360.004 574.718 359.778Z"/>
	<path fill="#FE775F" d="M625.425 320.635Q626.859 319.596 628.305 318.575C635.717 313.353 640.051 311.008 649.226 310.708C654.738 310.528 659.622 311.196 665.026 312.131C660.379 319.315 653.209 325.359 647.413 331.67C645.983 333.227 644.323 334.796 643.111 336.526C638.492 341.725 627.177 355.601 622.198 358.824L621.52 358.672C623.536 346.131 625.563 333.379 625.425 320.635Z"/>
	<path fill="#FE2F86" d="M133.502 563.882C134.638 563.174 135.695 562.57 137.023 562.314C141.713 561.409 147.011 561.83 151.78 561.832L176.037 561.853C171.497 572.978 166.155 583.828 161.277 594.813C157.422 594.836 153.562 594.82 149.708 594.895C143.758 584.939 138.834 574.194 133.502 563.882Z"/>
	<path fill="#1CD02F" d="M302.1 295.297C314.496 293.586 327.354 293.171 339.852 292.744C333.362 298.775 327.258 305.422 322.397 312.853C318.403 318.958 315.019 325.465 310.988 331.544C304.704 325.316 297.232 319.893 289.06 316.399C292.625 311.641 301.999 301.279 302.1 295.297Z"/>
	<path fill="#FE2F86" d="M184.53 562.716Q206.128 561.398 227.748 562.261Q220.468 578.763 212.296 594.842L199.011 594.878C194.353 584.096 188.948 573.586 184.53 562.716Z"/>
	<path fill="#FE2F86" d="M599.694 428.655C606.922 433.922 614.114 438.656 622.68 441.518C638.105 446.673 656.561 446.803 672.002 441.628C677.683 439.725 682.985 437.025 688.327 434.346C685.656 440.208 682.61 448.049 677.182 451.851C674.326 451.784 670.861 453.473 668.008 454.121C662.125 455.457 648.905 457.02 644.256 459.438C626.033 450.214 611.466 445.738 590.826 445.438C593.784 439.857 596.251 433.962 599.694 428.655Z"/>
	<path fill="#FE2F86" d="M54.8209 410.644C49.7082 403.521 46.5146 395.139 46.7447 386.291C46.9665 377.767 49.8791 369.377 56.2199 363.47C63.0797 357.08 70.2374 356.754 79.1034 357.057C85.5086 358.215 90.0206 359.711 94.6534 364.393C82.9728 368.833 73.4093 375.523 65.4532 385.24C59.9169 392.858 57.1291 401.635 54.8209 410.644Z"/>
	<defs>
		<linearGradient id="gradient_0" gradientUnits="userSpaceOnUse" x1="87.565704" y1="358.69641" x2="56.001801" y2="391.54041">
			<stop offset="0" stop-color="#FF9542"/>
			<stop offset="1" stop-color="#FF7F61"/>
		</linearGradient>
	</defs>
	<path fill="url(#gradient_0)" d="M79.1034 357.057C85.5086 358.215 90.0206 359.711 94.6534 364.393C82.9728 368.833 73.4093 375.523 65.4532 385.24C62.1899 384.799 59.3808 385.334 56.6962 387.325C56.0925 387.773 55.4625 388.276 54.9611 388.838C54.7932 388.884 54.6261 388.933 54.4574 388.975C53.2026 389.29 52.5942 389.483 51.4491 388.805C54.3923 385.497 56.6178 381.008 59.2262 377.372C63.0575 372.032 68.4639 367.137 73.3607 362.776C75.2434 361.1 77.9235 359.299 79.1034 357.057Z"/>
	<path fill="#04D6FB" d="M161.739 218.263C164.554 218.607 167.423 218.502 170.256 218.49C167.367 227.226 157.284 255.493 157.195 263.211C155.509 272.462 153.854 281.675 153.095 291.058C152.472 298.771 152.662 306.582 152.653 314.316Q152.556 335.533 153.655 356.721C154.252 366.537 155.392 376.274 156.153 386.062C151.547 370.789 147.834 355.463 145.822 339.62C144.568 329.751 144.34 319.828 144.372 309.89C144.442 287.808 146.452 266.695 152.293 245.348C154.789 236.225 157.373 226.69 161.739 218.263Z"/>
	<defs>
		<linearGradient id="gradient_1" gradientUnits="userSpaceOnUse" x1="654.8786" y1="434.1535" x2="660.78064" y2="376.96918">
			<stop offset="0" stop-color="#FF8E5A"/>
			<stop offset="1" stop-color="#FF4A81"/>
		</linearGradient>
	</defs>
	<path fill="url(#gradient_1)" d="M712.623 379.145C714.429 384.611 711.199 393.438 708.737 398.387C706.676 402.53 703.773 405.905 700.726 409.339C691.671 419.544 681.892 426.788 668.757 431.106C652.736 436.374 633.549 434.637 618.564 426.961C613.265 424.246 608.719 420.523 603.839 417.167C604.634 414.652 605.561 412.261 606.615 409.843L609.601 413.886L612.989 416.613Q620.497 408.548 627.702 400.211L630.611 401.424C635.986 404.542 640.645 405.378 646.686 406.436C648.431 406.742 650.49 406.913 652.092 407.657C648.388 411.533 636.945 421.674 636.574 427.083C646.769 427.888 656.553 428.184 666.517 425.399C670.54 424.809 674.703 423.437 677.971 420.954C695.768 410.483 704.047 397.254 712.623 379.145Z"/>
	<path fill="#B01DA4" d="M627.702 400.211L630.611 401.424C635.986 404.542 640.645 405.378 646.686 406.436C648.431 406.742 650.49 406.913 652.092 407.657C648.388 411.533 636.945 421.674 636.574 427.083C629.949 426.603 617.821 421.216 612.989 416.613Q620.497 408.548 627.702 400.211Z"/>
	<path fill="#006FC2" d="M490.058 263.503C495.229 269.691 500.28 272.799 507.425 276.229L509.385 287.868C490.844 287.778 471.623 288.966 453.778 294.359C449.491 295.654 445.524 297.609 441.322 299.019C441.774 292.342 442.883 285.44 444.229 278.888C453.429 272.919 467.441 266.871 478.223 264.832C481.961 264.125 486.547 264.792 490.058 263.503Z"/>
	<path fill="#FE973C" d="M465.997 497.087Q478.537 495.587 491.108 494.378C490.953 512.672 490.828 530.998 491.021 549.292C482.478 549.749 474.218 551.683 465.931 553.674L465.932 545.355L465.997 497.087Z"/>
	<path fill="#1CD02F" d="M201.078 218.663C205.037 218.896 209.002 218.829 212.965 218.811C217.428 234.369 227.532 245.928 241.539 253.73C248.349 257.524 261.086 263.853 268.54 265.093C270.654 272.333 273.352 279.012 276.775 285.73C271.139 285.036 256.462 278.02 250.657 275.572C242.47 272.118 234.016 269.074 226.172 264.879C222.1 262.701 218.243 260.154 214.858 257C204.569 247.412 201.581 232.168 201.078 218.663Z"/>
	<path fill="#04ADEF" d="M523.119 614.729C523.401 614.77 523.731 614.933 524 615.033L523.851 615.84C520.35 620.472 514.491 624.062 509.651 627.228C480.803 646.104 446.386 656.553 412.62 662.052C382.617 666.939 351.444 667.123 321.572 661.095C311.983 659.159 302.561 656.439 293.194 653.643C271.619 647.203 249.96 637.946 231.614 624.752C229.436 623.051 227.412 621.355 225.499 619.358C231.864 621.454 237.426 624.987 243.25 628.217C249.91 631.911 256.649 635.522 263.588 638.663C277.01 644.737 291.995 649.869 306.473 652.68C328.4 656.937 351.094 656.663 373.337 656.598C392.506 656.542 412.124 656.615 431.077 653.49C444.385 651.296 457.391 647.385 469.993 642.62Q478.516 639.378 486.721 635.399Q494.926 631.42 502.749 626.734C509.617 622.616 515.528 617.584 523.119 614.729Z"/>
	<path fill="#006FC2" d="M355.617 293.47C355.744 293.555 355.867 293.645 355.997 293.725C358.261 295.106 363.989 294.596 366.667 294.603C391.796 294.672 413.113 290.654 437.219 284.032C437.726 288.155 437.975 296.661 439.846 300.19C437.946 300.469 435.24 302.656 433.472 303.676Q429.518 305.974 425.783 308.613Q422.047 311.252 418.56 314.211Q415.072 317.169 411.86 320.425Q408.647 323.68 405.735 327.207C402.8 330.78 400.235 334.652 397.362 338.28C396.605 328.062 397.15 317.38 397.237 307.121C393.159 306.342 389.235 304.269 385.142 303.807C380.639 303.299 375.369 304.552 370.839 305.019L341.378 307.995C345.942 303.128 350.599 297.856 355.617 293.47Z"/>
	<path fill="#FED4A9" d="M31.6692 327.159Q50.3357 327.032 69 327.343C73.9858 327.445 85.5989 328.235 89.9431 327.417C91.7598 327.075 93.4332 324.928 94.4241 323.526C96.1706 321.054 97.2952 318.057 98.617 315.335C101.014 310.399 103.635 305.474 106.909 301.059C111.403 294.998 117.856 289.314 124.744 286.162C124.851 286.113 124.959 286.067 125.067 286.019C123.6 302.056 123.578 321.122 125.554 337.122C125.308 337.006 125.087 336.801 124.817 336.772C123.232 336.604 120.909 337.158 119.261 337.248C115.748 337.442 112.255 337.438 108.739 337.403L57.2129 337.193C48.9914 337.156 40.5395 337.59 32.3593 336.963C31.963 333.693 31.8025 330.446 31.6692 327.159Z"/>
	<path fill="#FEFEF2" d="M111.168 318.388C115.281 318.325 119.983 317.927 123.98 318.852L124.191 319.384L123.835 320.063C122.082 320.862 119.747 320.552 117.823 320.727C113.917 321 109.92 322.3 106.023 322.271L106.734 321.988L106.043 321.831C107.422 320.362 109.241 319.008 111.168 318.388Z"/>
	<path fill="#FE2F86" d="M97.8997 219.994C107.405 219.882 116.921 219.992 126.427 219.988C131.346 219.985 136.448 220.239 141.332 219.711C138.569 227.059 136.952 234.854 134.088 242.117C133.637 243.505 133.059 244.943 132.81 246.379C131.929 251.56 130.223 256.81 128.858 261.893C121.013 257.554 111.101 254.209 102.264 252.84C97.4753 252.099 80.1307 251.936 77.8521 249.593C76.9776 248.695 76.7067 247.428 76.7811 246.214C76.9155 244.019 77.9127 241.81 79.1135 240.002C82.2099 235.338 93.5695 223.831 97.8997 219.994Z"/>
	<path fill="#FEE0F4" d="M92.7196 243.803C96.5174 242.501 100.199 241.929 104.189 241.573C104.871 243.56 106.375 244.55 107.313 246.327L92.7196 243.803Z"/>
	<path fill="#FEFEF2" d="M104.189 241.573C111.636 240.544 127.205 239.338 134.088 242.117C133.637 243.505 133.059 244.943 132.81 246.379C127.363 247.485 119.766 248.443 114.266 247.835C111.943 247.578 109.581 246.891 107.313 246.327C106.375 244.55 104.871 243.56 104.189 241.573Z"/>
	<path fill="#FE2F86" d="M466.07 590.065C465.53 575.213 465.648 560.212 465.932 545.355L465.931 553.674C474.218 551.683 482.478 549.749 491.021 549.292L491.121 565.632C505.716 565.522 520.311 564.909 534.906 564.958L534.873 586.828C524.493 587.268 514.079 586.739 503.708 587.259C491.149 587.888 478.627 589.615 466.07 590.065Z"/>
	<path fill="#FEFEF2" d="M151.807 471.928C146.751 480.07 139.453 486.962 130.102 489.691C119.289 492.847 105.994 490.591 96.289 485.129C83.3217 477.832 72.2294 464.611 68.2457 450.189C63.8779 434.377 64.5762 417.183 72.8644 402.761C79.4385 391.323 90.9211 381.727 103.747 378.273C115.43 375.127 124.593 376.881 134.948 382.792Q135.812 386.189 136.801 389.552C126.451 397.371 116.757 405.748 107.291 414.615C103.821 417.865 100.119 421.069 96.9721 424.636C96.2574 423.472 95.6552 422.588 95.5277 421.208C97.8091 413.079 121.606 392.829 128.758 386.856C126.573 385.773 124.332 384.601 122.031 383.792C118.057 382.395 113.612 382.057 109.763 384.049C106.628 385.671 105.124 388.235 104.178 391.483C105.536 393.103 106.867 394.581 107.101 396.77C107.259 398.249 106.854 399.774 105.895 400.921C104.579 402.496 102.583 403.326 100.569 403.499C98.2956 403.694 95.9541 403.162 94.2071 401.639C91.8277 399.565 91.4791 397.09 91.347 394.124C84.3079 398.947 79.84 405.645 76.2576 413.277C76.6529 413.873 85.8981 433.867 86.0221 434.374L85.6324 434.309C83.0176 435.612 73.1735 439.383 72.1949 440.948L72.8007 443.907C74.7114 452.19 78.212 459.608 83.6207 466.194C89.3792 472.717 95.195 477.653 103.154 481.283C112.33 485.389 122.607 485.064 132.112 482.384C140.271 479.394 144.595 475.645 151.807 471.928Z"/>
	<path fill="#6937FD" d="M76.2576 413.277C76.6529 413.873 85.8981 433.867 86.0221 434.374L85.6324 434.309C83.0176 435.612 73.1735 439.383 72.1949 440.948C71.0542 430.82 72.1563 422.629 76.2576 413.277Z"/>
	<path fill="#FE2F86" d="M364.224 567.081C364.282 567.117 364.334 567.167 364.399 567.188C365.842 567.653 375.398 564.671 377.637 564.145C389.064 561.459 400.854 560.468 412.219 557.49C418.065 555.958 423.565 553.688 429.301 551.849C434.706 550.117 440.28 548.827 445.721 547.173C443.067 555.437 439.045 561.137 431.987 566.253C436.265 574.922 440.987 583.433 445.115 592.159Q431.624 593.276 418.087 593.324C415.203 586.044 411.429 579.142 408.552 571.843C401.402 572.977 394.114 574.108 387.072 575.805Q387.183 586.362 387.069 596.92C379.355 597.852 371.871 599.134 364.068 599.192C364.124 588.508 363.881 577.755 364.224 567.081Z"/>
	<path fill="#FE775F" d="M665.026 312.131L666.855 312.672C674.715 315.597 681.85 318.855 688.799 323.639C683.133 331.166 675.656 337.784 669.313 344.813Q654.844 360.805 640.58 376.979C637.84 380.114 629.093 391.072 626.727 392.717L626.39 392.537C624.761 393.169 623.739 395.115 622.737 396.481C621.308 396.64 618.545 394.378 617.367 393.581C611.937 389.907 617.068 387.762 616.036 383.754C615.989 383.57 615.927 383.39 615.873 383.208C616.234 380.773 617.203 378.178 617.825 375.774C618.919 371.54 619.84 367.254 620.794 362.986C620.978 361.541 621.265 360.107 621.52 358.672L622.198 358.824C627.177 355.601 638.492 341.725 643.111 336.526C644.323 334.796 645.983 333.227 647.413 331.67C653.209 325.359 660.379 319.315 665.026 312.131Z"/>
	<path fill="#F23673" d="M665.026 312.131L666.855 312.672C666.631 313.74 666.358 314.558 665.721 315.456C662.083 320.586 649.587 334 644.82 337.843C644.728 337.918 644.618 337.968 644.517 338.03C639.414 343.955 634.01 349.529 628.613 355.184C626.216 357.697 623.686 361.084 620.794 362.986C620.978 361.541 621.265 360.107 621.52 358.672L622.198 358.824C627.177 355.601 638.492 341.725 643.111 336.526C644.323 334.796 645.983 333.227 647.413 331.67C653.209 325.359 660.379 319.315 665.026 312.131Z"/>
	<path fill="#FE2F86" d="M345.063 552.783C345.384 565.132 341.325 576.999 332.706 585.988C324.126 594.935 311.129 601.155 298.661 601.375C286.061 601.598 273.608 597.128 264.584 588.246Q263.368 587.043 262.243 585.756Q261.117 584.468 260.088 583.103Q259.058 581.737 258.129 580.301Q257.201 578.865 256.379 577.365Q255.556 575.866 254.844 574.311Q254.132 572.756 253.534 571.154Q252.936 569.551 252.456 567.91Q251.975 566.269 251.614 564.597C259.571 563.945 267.589 562.828 275.505 561.775C278.011 568.681 281.794 573.643 288.593 576.808Q289.113 577.051 289.644 577.266Q290.176 577.482 290.717 577.671Q291.259 577.859 291.809 578.02Q292.36 578.181 292.918 578.314Q293.476 578.447 294.04 578.551Q294.604 578.655 295.172 578.731Q295.741 578.806 296.313 578.853Q296.884 578.899 297.458 578.917Q298.031 578.934 298.604 578.922Q299.178 578.911 299.75 578.87Q300.322 578.829 300.891 578.759Q301.46 578.69 302.026 578.591Q302.591 578.493 303.15 578.366Q303.709 578.238 304.261 578.083Q304.813 577.928 305.357 577.745Q305.9 577.562 306.434 577.351Q306.939 577.16 307.435 576.945Q307.93 576.729 308.414 576.489Q308.898 576.249 309.369 575.985Q309.841 575.721 310.298 575.434Q310.756 575.147 311.198 574.838Q311.641 574.528 312.068 574.197Q312.494 573.865 312.904 573.513Q313.314 573.161 313.705 572.789Q314.097 572.417 314.469 572.025Q314.842 571.634 315.194 571.225Q315.546 570.815 315.878 570.389Q316.21 569.962 316.519 569.52Q316.829 569.077 317.117 568.62Q317.404 568.162 317.668 567.691Q317.932 567.22 318.173 566.736Q318.413 566.252 318.629 565.757C319.174 564.498 319.574 563.17 319.981 561.862C320.55 561.8 320.67 561.802 321.186 561.699C326.992 560.544 332.46 556.159 339.374 554.709C340.988 554.371 344.151 554.107 345.063 552.783Z"/>
	<path fill="#8448FE" d="M104.178 391.483C105.124 388.235 106.628 385.671 109.763 384.049C113.612 382.057 118.057 382.395 122.031 383.792C124.332 384.601 126.573 385.773 128.758 386.856C121.606 392.829 97.8091 413.079 95.5277 421.208C95.6552 422.588 96.2574 423.472 96.9721 424.636C100.119 421.069 103.821 417.865 107.291 414.615C116.757 405.748 126.451 397.371 136.801 389.552C140.018 396.715 142.465 404.391 145.442 411.681C140.86 416.356 106.094 449.755 102.819 450.711C99.6509 448.496 96.3715 445.581 92.859 443.998C90.5083 441.198 88.5893 438.095 86.6634 434.998C87.7562 434.393 88.6032 433.833 89.5009 432.961L89.3126 432.319C88.2874 433.02 87.1876 433.94 86.0221 434.374C85.8981 433.867 76.6529 413.873 76.2576 413.277C79.84 405.645 84.3079 398.947 91.347 394.124C91.4791 397.09 91.8277 399.565 94.2071 401.639C95.9541 403.162 98.2956 403.694 100.569 403.499C102.583 403.326 104.579 402.496 105.895 400.921C106.854 399.774 107.259 398.249 107.101 396.77C106.867 394.581 105.536 393.103 104.178 391.483Z"/>
	<path fill="#6222CE" d="M706.852 343.832L708.04 343.361C711.5 352.49 711.897 355.61 712.616 365.369C712.755 367.25 713.233 369.601 712.696 371.409L712.216 371.914C712.037 373.012 711.875 373.861 711.333 374.84C712.023 376.258 712.327 377.61 712.623 379.145C704.047 397.254 695.768 410.483 677.971 420.954C674.703 423.437 670.54 424.809 666.517 425.399C656.553 428.184 646.769 427.888 636.574 427.083C636.945 421.674 648.388 411.533 652.092 407.657Q652.626 407.173 653.139 406.666C660.464 399.475 706.811 349.255 706.852 343.832Z"/>
	<path fill="#FE2F86" d="M666.517 425.399C676.857 414.216 686.98 402.416 696.542 390.549C700.784 385.286 704.626 379.645 709.047 374.537C709.923 373.525 710.898 372.296 712.216 371.914C712.037 373.012 711.875 373.861 711.333 374.84C712.023 376.258 712.327 377.61 712.623 379.145C704.047 397.254 695.768 410.483 677.971 420.954C674.703 423.437 670.54 424.809 666.517 425.399Z"/>
	<path fill="#B01DA4" d="M677.971 420.954L677.628 420.243C678.066 418.364 699.892 392.25 702.379 388.937C705.663 384.561 709.024 379.802 711.333 374.84C712.023 376.258 712.327 377.61 712.623 379.145C704.047 397.254 695.768 410.483 677.971 420.954Z"/>
	<path fill="#FEFEF2" d="M564.157 177.123Q564.689 175.794 565.341 174.519Q565.992 173.243 566.758 172.033Q567.523 170.823 568.396 169.688Q569.269 168.553 570.242 167.503C576.687 160.578 586.116 157.094 595.464 156.882C607.291 156.613 618.703 163.514 626.991 171.425C623.502 172.92 622.293 171.293 618.813 174.516C618.945 183.428 620.53 193.526 613.793 200.545C611.036 203.417 607.842 203.613 604.049 203.665C592.313 203.828 580.256 203.85 568.543 203.002C563.881 202.665 559.275 201.819 554.62 201.444C552.482 201.272 547.18 201.685 545.486 200.912L545.857 200.568L545.324 200.728L545.354 200.467C545.672 197.406 546.727 194.553 548.546 192.062C551.182 188.454 555.062 186.203 559.443 185.505C560.039 185.449 560.808 185.45 561.372 185.267C562.944 184.758 563.298 179.224 563.986 177.534L564.157 177.123Z"/>
	<path fill="#FED4A9" d="M564.157 177.123C565.125 177.41 565.428 177.286 566.304 176.78C568.201 175.683 570.277 173.555 572.591 173.578C573.345 174.067 573.442 174.085 573.599 175.027C574.348 179.496 573.723 187.916 573.712 192.824C570.771 189.559 566.494 185.675 561.847 185.496C561.046 185.465 560.244 185.484 559.443 185.505C560.039 185.449 560.808 185.45 561.372 185.267C562.944 184.758 563.298 179.224 563.986 177.534L564.157 177.123Z"/>
	<defs>
		<linearGradient id="gradient_2" gradientUnits="userSpaceOnUse" x1="377.14001" y1="614.61212" x2="379.76709" y2="643.46246">
			<stop offset="0" stop-color="#048EDB"/>
			<stop offset="1" stop-color="#00B5F0"/>
		</linearGradient>
	</defs>
	<path fill="url(#gradient_2)" d="M483.508 617.895C485.397 617.713 487.362 617.745 489.263 617.675Q484.74 620.57 479.939 622.977C465.805 629.893 450.099 633.332 434.783 636.473C393.985 644.841 361.297 646.664 319.982 639.013C306.387 636.495 292.75 633.28 279.655 628.815C274.311 627.046 268.913 625.295 263.905 622.697C277.127 624.445 290.01 625.676 303.377 625.396C308.664 625.286 313.899 623.767 319.192 624.055C325.234 624.383 331.277 626.135 337.318 626.803C354.565 628.709 373.102 629.424 390.384 628.094C401.66 627.227 412.868 624.941 424.079 623.424C432.318 622.31 440.638 621.626 448.911 620.784C460.478 619.607 471.884 618.417 483.508 617.895Z"/>
	<path fill="#FE2F86" d="M688.799 323.639C690.144 324.384 691.435 325.258 692.4 326.483L695.134 329.339C696.631 330.921 698.136 332.511 699.483 334.224C701.433 336.702 704.424 342.351 706.852 343.832C706.811 349.255 660.464 399.475 653.139 406.666Q652.626 407.173 652.092 407.657C650.49 406.913 648.431 406.742 646.686 406.436C640.645 405.378 635.986 404.542 630.611 401.424L627.702 400.211L627.737 399.667C626.172 398.871 624.888 397.868 623.524 396.781L626.727 392.717C629.093 391.072 637.84 380.114 640.58 376.979Q654.844 360.805 669.313 344.813C675.656 337.784 683.133 331.166 688.799 323.639Z"/>
	<path fill="#FED4A9" d="M688.799 323.639C690.144 324.384 691.435 325.258 692.4 326.483L695.134 329.339Q673.098 352.577 652.154 376.805L637.637 393.892C635.442 396.427 633.303 399.413 630.611 401.424L627.702 400.211L627.737 399.667C626.172 398.871 624.888 397.868 623.524 396.781L626.727 392.717C629.093 391.072 637.84 380.114 640.58 376.979Q654.844 360.805 669.313 344.813C675.656 337.784 683.133 331.166 688.799 323.639Z"/>
	<path fill="#F23673" d="M627.737 399.667C633.317 394.879 641.959 382.762 647.332 376.55C661.985 359.61 677.046 342.788 692.4 326.483L695.134 329.339Q673.098 352.577 652.154 376.805L637.637 393.892C635.442 396.427 633.303 399.413 630.611 401.424L627.702 400.211L627.737 399.667Z"/>
	<path fill="#006FC2" d="M288.09 279.362C285.16 273.669 278.771 261.321 280.888 255.041C282.709 249.639 292.309 250.75 296.831 250.095C299.494 249.709 302.162 248.88 304.505 247.543C311.272 243.68 313.511 235.931 319.24 231.154C323.541 227.566 329.207 226.159 334.103 223.586C341.13 219.893 344.77 215.109 347.106 207.614C347.118 207.754 347.133 207.894 347.144 208.034C347.587 213.742 345.887 221.541 342.121 226C338.926 229.784 328.334 234.238 329.157 240.226C329.285 241.156 329.873 241.837 330.662 242.291C339.146 247.167 370.3 237.449 378.767 253.203C378.843 255.069 378.98 257 378.584 258.838C376.517 268.442 368.379 279.192 361.839 286.249C360.873 287.291 360.041 288.146 358.802 288.865C359.08 287.292 359.334 285.699 359.429 284.103C359.688 279.753 358.38 275.274 355.399 272.037C351.566 267.874 345.943 266.245 340.441 266.161C332.435 266.038 304.169 270.248 297.223 273.084C293.579 274.572 290.905 276.651 288.09 279.362Z"/>
	<path fill="#6222CE" d="M145.442 411.681Q148.335 419.311 151.715 426.739C153.759 431.213 156.052 435.645 157.798 440.241C158.972 443.758 158.428 446.686 156.8 450C151.071 461.66 130.905 471.238 132.112 482.384C122.607 485.064 112.33 485.389 103.154 481.283C95.195 477.653 89.3792 472.717 83.6207 466.194C78.212 459.608 74.7114 452.19 72.8007 443.907L72.1949 440.948C73.1735 439.383 83.0176 435.612 85.6324 434.309L86.0221 434.374C87.1876 433.94 88.2874 433.02 89.3126 432.319L89.5009 432.961C88.6032 433.833 87.7562 434.393 86.6634 434.998C88.5893 438.095 90.5083 441.198 92.859 443.998C96.3715 445.581 99.6509 448.496 102.819 450.711C106.094 449.755 140.86 416.356 145.442 411.681Z"/>
	<path fill="#081F7E" d="M85.6324 434.309L86.3702 434.735C85.7885 436.547 77.4558 441.695 75.4484 442.742C74.5867 443.192 73.7255 443.603 72.8007 443.907L72.1949 440.948C73.1735 439.383 83.0176 435.612 85.6324 434.309Z"/>
	<path fill="#081F7E" d="M99.6706 454.64C102.9 458.084 107.37 459.952 111.336 462.4C113.814 463.93 116.132 465.749 118.443 467.515C114.749 470.444 111.265 473.572 107.828 476.797C106.325 478.207 104.803 480.087 103.154 481.283C95.195 477.653 89.3792 472.717 83.6207 466.194C85.5727 463.47 96.0838 457.287 99.6706 454.64Z"/>
	<path fill="#6937FD" d="M145.442 411.681Q148.335 419.311 151.715 426.739C153.759 431.213 156.052 435.645 157.798 440.241C151.703 448.242 143.434 457.666 132.857 459.145C127.284 459.924 120.326 459.698 115.12 457.356C113.058 456.429 111.122 455.106 109.142 454.01C107.28 452.981 104.933 451.409 102.873 450.946L99.629 454.299C96.7954 451.441 93.977 447.927 92.859 443.998C96.3715 445.581 99.6509 448.496 102.819 450.711C106.094 449.755 140.86 416.356 145.442 411.681Z"/>
	<path fill="#FE2F86" d="M656.598 522.793C657.249 538.148 652.412 553.714 641.908 565.14C624.754 583.798 603.379 585.942 579.722 586.829C571.684 587.131 563.544 587.046 555.502 586.875Q555.391 564.47 555.517 542.064L581.123 542.817L581.189 562.1C592.096 562.56 603.077 562.295 612.915 556.989C621.502 552.357 626.438 545.089 629.134 535.896C638.923 533.924 647.466 526.578 656.598 522.793Z"/>
	<defs>
		<linearGradient id="gradient_3" gradientUnits="userSpaceOnUse" x1="548.32568" y1="245.66951" x2="608.97772" y2="353.53241">
			<stop offset="0" stop-color="#07CB29"/>
			<stop offset="1" stop-color="#00AF7C"/>
		</linearGradient>
	</defs>
	<path fill="url(#gradient_3)" d="M578.205 227.203C580.651 227.091 587.144 226.162 589.053 227.636C591.23 229.317 592.556 233.631 593.596 236.166Q594.971 239.553 596.202 242.995Q597.432 246.437 598.516 249.928Q599.6 253.419 600.535 256.953Q601.47 260.487 602.255 264.057Q603.039 267.627 603.672 271.228Q604.305 274.828 604.785 278.452Q605.265 282.076 605.59 285.717Q605.916 289.358 606.088 293.009C606.736 308.207 606.314 322.796 604.754 337.954C604.113 344.187 603.484 350.742 601.96 356.824C600.443 358.855 598.53 359.747 596.035 360.101C594.871 360.267 593.601 359.964 592.483 360.197C586.486 360.144 580.714 359.006 574.718 359.778C568.771 358.739 563.132 357.237 557.382 355.415C560.158 351.738 562.686 347.839 565.445 344.136C570.307 337.609 575.428 331.201 579.942 324.427C575.179 318.99 569.613 314.569 564.023 310.03C573.24 303.012 582.151 287.292 585.34 276.404C590.117 260.095 586.219 241.799 578.205 227.203Z"/>
	<path fill="#FEFEF2" d="M56.2767 293.26Q57.3088 290.17 58.9082 287.331C64.2719 277.728 74.1069 270.739 84.6317 267.889C99.2883 263.921 113.287 267.447 126.161 274.913Q125.678 280.472 125.067 286.019C124.959 286.067 124.851 286.113 124.744 286.162C117.856 289.314 111.403 294.998 106.909 301.059C103.635 305.474 101.014 310.399 98.617 315.335C97.2952 318.057 96.1706 321.054 94.4241 323.526C93.4332 324.928 91.7598 327.075 89.9431 327.417C85.5989 328.235 73.9858 327.445 69 327.343Q50.3357 327.032 31.6692 327.159C31.6869 325.912 31.7014 324.659 31.8054 323.416C32.2744 317.81 34.5059 312.476 38.9179 308.849C42.9743 305.514 48.1114 304.349 53.2695 304.857C53.6631 301.028 54.897 296.846 56.2767 293.26Z"/>
	<path fill="#FED4A9" d="M56.2767 293.26L56.778 293.803C59.765 293.59 64.1027 290.381 66.8055 288.841C67.1125 298.506 66.7743 308.187 67.3012 317.843C63.5177 311.381 59.8558 308.302 53.2695 304.857C53.6631 301.028 54.897 296.846 56.2767 293.26Z"/>
	<path fill="#B9FA09" d="M476.067 106.143C495.223 113.547 523.362 136.955 538.178 151.035C543.341 155.941 548.005 161.721 553.353 166.361C552.364 168.55 551.459 170.709 550.707 172.992C541.104 178.928 535.475 184.236 532.035 195.261L531.218 195.595C531.173 195.726 531.126 195.856 531.085 195.987C531.018 196.196 530.959 196.408 530.892 196.618C530.201 198.792 530.287 201.051 530.234 203.314C530.016 203.03 529.794 202.749 529.579 202.463C528.562 201.113 527.665 200.195 525.983 199.721C523.585 199.047 521.891 197.487 519.697 196.431C517.003 195.135 511.948 198.087 508.948 198.545C508.807 197.898 508.748 198.006 508.844 197.5C509.239 195.418 509.926 193.538 509.34 191.39C509.289 191.201 509.227 191.015 509.17 190.828C508.943 189.634 508.738 188.406 508.412 187.236C507.789 185.004 506.775 183.76 504.799 182.594C497.986 164.704 475.512 174.592 466.305 165.843C463.857 163.517 463.014 160.544 462.869 157.264C463.874 147.143 473.6 148.31 479.594 142.671C482.925 139.537 484.205 135.599 484.248 131.155C485.25 130.993 487.338 129.92 488.057 129.183C488.906 128.313 488.66 127.394 488.664 126.271C485.946 118.572 481.733 112.012 476.067 106.143Z"/>
	<path fill="#FAFDAA" d="M488.664 126.271C490.065 131.714 490.35 137.994 487.287 142.949C483.16 149.624 471.585 155.369 464.033 157.046C463.646 157.132 463.26 157.199 462.869 157.264C463.874 147.143 473.6 148.31 479.594 142.671C482.925 139.537 484.205 135.599 484.248 131.155C485.25 130.993 487.338 129.92 488.057 129.183C488.906 128.313 488.66 127.394 488.664 126.271Z"/>
	<path fill="#B9FA09" d="M354.146 172.662C354.666 175.625 354.923 178.383 353.15 181.036C349.575 186.383 341.476 186.849 337.143 191.505C332.302 196.706 336.884 203.918 333.229 209.403C328.897 215.904 317.724 216.465 311.585 221.354C305.266 226.384 302.543 237.144 293.936 238.588C291.009 239.079 287.999 238.802 285.051 239.063C279.891 239.52 274.794 242.451 271.682 246.565C268.051 251.365 267.321 257.617 268.238 263.429Q268.366 264.265 268.54 265.093C261.086 263.853 248.349 257.524 241.539 253.73C227.532 245.928 217.428 234.369 212.965 218.811L251.272 218.821C257.865 218.83 265.086 219.405 271.601 218.579C273.696 218.314 275.964 217.551 277.239 215.754C278.117 214.516 278.309 212.995 278.027 211.528C277.569 209.141 276.16 208.107 274.233 206.819C276.768 205.42 309.968 207.048 316.647 206.085C318.428 205.828 318.872 205.709 319.956 204.24C320.787 203.21 321.425 202.205 321.402 200.829C321.372 199 320.267 197.407 318.972 196.206C315.547 193.029 311.402 191.352 306.764 191.614C304.825 188.167 303.125 184.555 301.357 181.015C319.273 180.3 336.282 174.146 354.146 172.662Z"/>
	<path fill="#FE973C" d="M170.452 516.052L188.687 516.097C193.172 523.377 196.348 531.82 199.629 539.708C201.321 543.774 202.886 548.146 205.326 551.828C210.907 540.286 215.663 528.376 221.048 516.757L248.739 517.733Q237.785 539.781 227.748 562.261Q206.128 561.398 184.53 562.716Q182.401 557.777 180.111 552.911C178.659 555.843 177.374 558.868 176.037 561.853L151.78 561.832C147.011 561.83 141.713 561.409 137.023 562.314C135.695 562.57 134.638 563.174 133.502 563.882C130.071 557.939 127.277 551.599 124.245 545.447Q117.143 531.308 110.221 517.081C119.337 516.699 128.526 516.844 137.653 516.783C143.597 528.126 148.892 539.84 154.404 551.399C159.919 539.697 164.964 527.77 170.452 516.052Z"/>
	<path fill="#FE973C" d="M364.07 511.583C378.166 507.995 412.725 501.498 425.947 504.781C433.075 506.551 439.403 510.156 443.213 516.607C448.175 525.008 448.098 538.015 445.721 547.173C440.28 548.827 434.706 550.117 429.301 551.849C423.565 553.688 418.065 555.958 412.219 557.49C400.854 560.468 389.064 561.459 377.637 564.145C375.398 564.671 365.842 567.653 364.399 567.188C364.334 567.167 364.282 567.117 364.224 567.081L364.07 511.583Z"/>
	<path fill="#000140" d="M402.454 524.716C407.312 524.333 412.186 524.013 416.637 526.41C419.747 528.085 421.981 530.885 422.852 534.317C423.835 538.194 423.053 542.455 420.886 545.8C417.416 551.154 411.627 552.669 405.801 553.964C399.74 555.175 393.489 556.205 387.351 556.92Q387.188 542.02 387.342 527.119C392.365 526.209 397.373 525.245 402.454 524.716Z"/>
	<path fill="#FED4A9" d="M130.652 150.11C131.194 150.922 131.682 151.762 132.18 152.602C130.457 155.696 131.132 188.42 130.896 194.756C138.964 194.995 182.983 197.404 187.759 192.663C191.93 188.522 187.036 165.151 190.615 161.571C192.745 161.485 195.502 162.816 197.018 164.256C200.638 167.694 200.876 173.439 200.897 178.113C200.913 181.761 200.55 185.11 199.179 188.519L263.034 189.353C269.136 189.375 275.808 190.592 281.815 189.908C283.932 189.666 286.483 188.34 288.338 187.286C291.793 191.287 293.975 196.103 295.376 201.179C298.406 201.209 301.604 201.029 304.607 201.407C309.799 201.449 315.662 200.822 319.956 204.24C318.872 205.709 318.428 205.828 316.647 206.085C309.968 207.048 276.768 205.42 274.233 206.819C268.012 205.822 261.198 206.341 254.891 206.355L222.49 206.392L92.97 206.568L92.5915 201.769C91.8566 198.607 92.2599 194.021 92.878 190.826Q93.1386 189.736 93.4917 188.672Q93.8447 187.608 94.2876 186.578Q94.7305 185.549 95.26 184.561Q95.7895 183.573 96.4017 182.634Q97.0139 181.695 97.7043 180.812Q98.3946 179.929 99.1581 179.108Q99.9216 178.288 100.753 177.535Q101.584 176.783 102.476 176.105C108.028 171.963 114.508 170.987 121.243 171.952C122.84 162.648 124.572 157.468 130.652 150.11Z"/>
	<path fill="#FEFEF2" d="M92.878 190.826Q93.1386 189.736 93.4917 188.672Q93.8447 187.608 94.2876 186.578Q94.7305 185.549 95.26 184.561Q95.7895 183.573 96.4017 182.634Q97.0139 181.695 97.7043 180.812Q98.3946 179.929 99.1581 179.108Q99.9216 178.288 100.753 177.535Q101.584 176.783 102.476 176.105C108.028 171.963 114.508 170.987 121.243 171.952C122.103 172.704 122.218 173.064 122.33 174.204C123.02 181.17 121.873 188.28 123.562 195.15L109.617 195.204C106.871 192.857 104.108 190.248 100.926 188.507L100.412 188.658C98.6596 189.177 94.5465 191.492 93.1487 191.244L92.878 190.826Z"/>
	<path fill="#FEFEF2" d="M304.607 201.407C309.799 201.449 315.662 200.822 319.956 204.24C318.872 205.709 318.428 205.828 316.647 206.085C309.968 207.048 276.768 205.42 274.233 206.819C268.012 205.822 261.198 206.341 254.891 206.355L222.49 206.392L92.97 206.568L92.5915 201.769C95.2875 200.842 120.878 201.507 125.916 201.486L246.327 201.489L283.506 201.424C290.503 201.435 297.624 201.823 304.607 201.407Z"/>
	<path fill="#FE973C" d="M251.614 564.597Q251.438 563.535 251.322 562.465C250.108 551.41 251.748 540.91 258.874 532.071Q259.66 531.092 260.493 530.154Q261.327 529.215 262.206 528.319Q263.085 527.423 264.007 526.571Q264.93 525.72 265.893 524.916Q266.857 524.111 267.859 523.355Q268.861 522.6 269.899 521.894Q270.938 521.189 272.01 520.537Q273.082 519.884 274.185 519.285Q275.288 518.687 276.42 518.143Q277.552 517.6 278.709 517.114Q279.866 516.627 281.045 516.199Q282.225 515.771 283.425 515.401Q284.624 515.032 285.841 514.723Q287.057 514.413 288.288 514.165Q289.518 513.916 290.759 513.729Q292 513.541 293.249 513.416C306.587 512.017 319.741 514.136 330.339 522.808C339.787 530.54 343.93 540.862 345.063 552.783C344.151 554.107 340.988 554.371 339.374 554.709C332.46 556.159 326.992 560.544 321.186 561.699C320.67 561.802 320.55 561.8 319.981 561.862C319.574 563.17 319.174 564.498 318.629 565.757Q318.413 566.252 318.173 566.736Q317.932 567.22 317.668 567.691Q317.404 568.162 317.117 568.62Q316.829 569.077 316.519 569.52Q316.21 569.962 315.878 570.389Q315.546 570.815 315.194 571.225Q314.842 571.634 314.469 572.025Q314.097 572.417 313.705 572.789Q313.314 573.161 312.904 573.513Q312.494 573.865 312.068 574.197Q311.641 574.528 311.198 574.838Q310.756 575.147 310.298 575.434Q309.841 575.721 309.369 575.985Q308.898 576.249 308.414 576.489Q307.93 576.729 307.435 576.945Q306.939 577.16 306.434 577.351Q305.9 577.562 305.357 577.745Q304.813 577.928 304.261 578.083Q303.709 578.238 303.15 578.365Q302.591 578.493 302.026 578.591Q301.46 578.69 300.891 578.759Q300.322 578.829 299.75 578.87Q299.178 578.911 298.604 578.922Q298.031 578.934 297.458 578.917Q296.884 578.899 296.313 578.853Q295.741 578.806 295.172 578.731Q294.604 578.655 294.04 578.551Q293.476 578.447 292.918 578.314Q292.36 578.181 291.809 578.02Q291.259 577.859 290.717 577.671Q290.176 577.482 289.644 577.266Q289.113 577.051 288.593 576.808C281.794 573.643 278.011 568.681 275.505 561.775C267.589 562.828 259.571 563.945 251.614 564.597Z"/>
	<path fill="#000140" d="M275.505 561.775C274.352 555.984 275.017 549.995 278.335 545.003C281.856 539.708 287.987 535.928 294.187 534.725C300.058 533.587 306.472 534.728 311.415 538.156Q311.847 538.461 312.264 538.788Q312.681 539.115 313.081 539.461Q313.481 539.808 313.864 540.174Q314.246 540.541 314.61 540.926Q314.974 541.31 315.318 541.713Q315.662 542.115 315.986 542.534Q316.31 542.953 316.612 543.387Q316.915 543.822 317.196 544.271Q317.476 544.72 317.734 545.182Q317.992 545.645 318.227 546.119Q318.462 546.594 318.673 547.079Q318.884 547.565 319.07 548.061Q319.257 548.556 319.419 549.06Q319.581 549.565 319.717 550.076Q319.854 550.588 319.965 551.106Q320.076 551.623 320.161 552.146C320.73 555.457 320.457 558.56 319.981 561.862C319.574 563.17 319.174 564.498 318.629 565.757Q318.413 566.252 318.173 566.736Q317.932 567.22 317.668 567.691Q317.404 568.162 317.117 568.62Q316.829 569.077 316.519 569.52Q316.21 569.962 315.878 570.389Q315.546 570.815 315.194 571.225Q314.842 571.634 314.469 572.025Q314.097 572.417 313.705 572.789Q313.314 573.161 312.904 573.513Q312.494 573.865 312.068 574.197Q311.641 574.528 311.198 574.838Q310.756 575.147 310.298 575.434Q309.841 575.721 309.369 575.985Q308.898 576.249 308.414 576.489Q307.93 576.729 307.435 576.945Q306.939 577.16 306.434 577.351Q305.9 577.562 305.357 577.745Q304.813 577.928 304.261 578.083Q303.709 578.238 303.15 578.365Q302.591 578.493 302.026 578.591Q301.46 578.69 300.891 578.759Q300.322 578.829 299.75 578.87Q299.178 578.911 298.604 578.922Q298.031 578.934 297.458 578.917Q296.884 578.899 296.313 578.853Q295.741 578.806 295.172 578.731Q294.604 578.655 294.04 578.551Q293.476 578.447 292.918 578.314Q292.36 578.181 291.809 578.02Q291.259 577.859 290.717 577.671Q290.176 577.482 289.644 577.266Q289.113 577.051 288.593 576.808C281.794 573.643 278.011 568.681 275.505 561.775Z"/>
	<path fill="#FEFEF2" d="M138.111 155.194C140.758 149.15 144.61 145.521 150.762 143.136Q151.649 142.798 152.551 142.505Q153.453 142.211 154.368 141.962Q155.284 141.713 156.211 141.51Q157.137 141.307 158.073 141.15Q159.009 140.993 159.951 140.882Q160.893 140.771 161.84 140.707Q162.786 140.643 163.735 140.626Q164.683 140.608 165.631 140.638Q166.58 140.668 167.525 140.744Q168.471 140.82 169.412 140.943Q170.352 141.066 171.286 141.236Q172.219 141.405 173.143 141.62Q174.067 141.836 174.979 142.096Q175.892 142.357 176.79 142.662Q177.688 142.968 178.57 143.317Q179.452 143.667 180.316 144.059C191.592 149.059 199.672 157.882 205.488 168.603C206.102 169.736 211.391 181.874 211.911 182.062C212.115 182.136 212.336 181.98 212.548 181.939C213.936 180.206 214.645 178.008 215.887 176.15C219.975 170.034 226.403 165.462 233.791 164.588C241.024 163.732 247.896 166.139 253.499 170.687C258.179 174.486 260.926 180.021 265.186 184.253C265.271 184.338 265.356 184.425 265.441 184.511C269.628 181.956 273.883 180.311 278.873 181.506C282.637 182.407 285.619 184.648 288.338 187.286C286.483 188.34 283.932 189.666 281.815 189.908C275.808 190.592 269.136 189.375 263.034 189.353L199.179 188.519C200.55 185.11 200.913 181.761 200.897 178.113C200.876 173.439 200.638 167.694 197.018 164.256C195.502 162.816 192.745 161.485 190.615 161.571C187.036 165.151 191.93 188.522 187.759 192.663C182.983 197.404 138.964 194.995 130.896 194.756C131.132 188.42 130.457 155.696 132.18 152.602C132.875 153.603 133.589 154.969 134.859 155.254C135.826 155.471 137.127 155.271 138.111 155.194Z"/>
	<path fill="#006FC2" d="M161.739 218.263C168.946 217.45 176.914 218.022 184.179 218.038C185.544 238.078 190.628 257.472 206.428 271.135C223.378 285.793 258.992 295.361 280.165 305.962C279.564 307.545 278.34 312.549 276.988 313.235C274.055 314.724 220.994 314.161 214.047 313.586C208.285 313.109 202.062 312.498 196.666 310.346C181.976 304.487 167.123 288.212 161.209 273.749C159.94 270.643 159.147 265.785 157.195 263.211C157.284 255.493 167.367 227.226 170.256 218.49C167.423 218.502 164.554 218.607 161.739 218.263Z"/>
	<path fill="#04ADEF" d="M191.92 264.338C192.937 264.304 194.112 264.207 195.112 264.421C198.375 265.119 209.047 276.499 211.209 279.62C209.465 280.472 207.848 281.228 205.959 281.717C203.755 281.681 201.534 281.293 199.352 280.996C195.426 280.462 189.954 280.217 187.451 276.687C186.305 275.072 185.946 272.833 186.389 270.916C187.068 267.977 189.515 265.917 191.92 264.338Z"/>
	<path fill="#FEFEF2" d="M637.388 262.44C639.437 251.234 642.972 241.838 652.766 235.152Q653.585 234.584 654.431 234.057Q655.277 233.531 656.149 233.047Q657.02 232.564 657.915 232.124Q658.809 231.685 659.725 231.29Q660.64 230.896 661.574 230.548Q662.508 230.2 663.458 229.899Q664.408 229.598 665.372 229.345Q666.336 229.092 667.311 228.887Q668.287 228.683 669.271 228.527Q670.256 228.371 671.247 228.265Q672.237 228.159 673.233 228.102Q674.228 228.045 675.224 228.038Q676.221 228.031 677.216 228.074Q678.212 228.117 679.204 228.209Q680.197 228.302 681.183 228.444Q682.17 228.586 683.148 228.777C697.716 231.684 709.638 241.676 717.623 253.886C722.476 261.308 724.628 269.16 722.754 277.948C722.047 281.265 718.04 291.672 715.598 293.664C705.276 293.73 694.721 294.188 684.427 293.605C677.752 293.228 671.175 292.064 664.471 291.87C651.383 291.493 638.19 291.916 625.098 292.078C624.882 290.553 624.636 289.031 624.537 287.493C623.872 284.583 623.873 281.168 623.581 278.173C622.661 270.841 620.882 263.628 620.043 256.311C628.774 255.901 630.347 258.389 637.388 262.44Z"/>
	<path fill="#FED4A9" d="M686.343 278.755C684.555 272.312 682.821 264.639 686.477 258.493C688.638 254.862 692.426 252.821 696.45 251.926C701.28 250.851 706.421 251.617 710.57 254.389C714.634 257.105 717.337 261.561 718.162 266.349C719.125 271.937 717.636 278.276 714.348 282.898C712.948 284.866 711.035 286.426 708.592 286.802C703.433 287.597 692.399 286.921 686.73 286.901L638.473 286.825C635.347 286.822 627.428 286.129 624.762 287.148L624.537 287.493C623.872 284.583 623.873 281.168 623.581 278.173C633.318 278.752 643.182 278.575 652.94 278.733C663.996 278.913 675.309 279.429 686.343 278.755Z"/>
	<path fill="#FEFEF2" d="M697.128 263.963C697.923 263.886 698.745 263.861 699.542 263.919C701.248 264.044 703.062 264.883 704.108 266.266C704.922 267.342 705.189 268.665 704.909 269.981C704.435 272.213 702.803 273.305 701.019 274.504C700.104 274.773 698.932 274.751 698.009 274.522C696.664 274.187 695.423 273.25 694.72 272.058Q694.567 271.796 694.442 271.519Q694.316 271.243 694.219 270.956Q694.122 270.668 694.055 270.372Q693.987 270.076 693.95 269.775Q693.912 269.474 693.905 269.171Q693.898 268.867 693.921 268.565Q693.945 268.262 693.999 267.963Q694.052 267.665 694.136 267.373C694.645 265.658 695.633 264.841 697.128 263.963Z"/>
	<path fill="#FEFEF2" d="M370.249 333.598C371.212 333.431 371.954 333.326 372.936 333.502C373.081 333.73 373.292 333.928 373.371 334.187C373.804 335.603 373.485 357.204 373.497 360.454L373.565 482.293C362.723 485.033 351.501 486.435 340.45 488.088L337.05 488.67L337.247 385.944Q337.134 361.51 337.326 337.078C348.183 335.38 359.307 334.636 370.249 333.598Z"/>
	<path fill="#A6BCDF" d="M365.028 410.505C365.631 410.447 366.157 410.494 366.757 410.567C367.786 412.674 367.292 469.237 367.279 477.061C360.243 478.904 352.886 479.777 345.696 480.809C345.009 480.929 344.449 480.904 343.757 480.835C342.725 478.933 343.368 417.567 343.403 411.029C350.609 411.009 357.826 410.728 365.028 410.505Z"/>
	<defs>
		<linearGradient id="gradient_4" gradientUnits="userSpaceOnUse" x1="542.23468" y1="196.32451" x2="540.37024" y2="307.92813">
			<stop offset="0" stop-color="#C3FF0D"/>
			<stop offset="1" stop-color="#6BEC2C"/>
		</linearGradient>
	</defs>
	<path fill="url(#gradient_4)" d="M509.17 190.828C509.227 191.015 509.289 191.201 509.34 191.39C509.926 193.538 509.239 195.418 508.844 197.5C508.748 198.006 508.807 197.898 508.948 198.545C511.948 198.087 517.003 195.135 519.697 196.431C521.891 197.487 523.585 199.047 525.983 199.721C527.665 200.195 528.562 201.113 529.579 202.463C529.794 202.749 530.016 203.03 530.234 203.314C530.287 201.051 530.201 198.792 530.892 196.618C530.959 196.408 531.018 196.196 531.085 195.987C531.126 195.856 531.173 195.726 531.218 195.595L532.035 195.261C530.884 203.57 531.425 211.334 536.613 218.272C540.349 223.27 546.177 226.281 552.305 227.127C560.549 228.265 569.855 227.432 578.205 227.203C586.219 241.799 590.117 260.095 585.34 276.404C582.151 287.292 573.24 303.012 564.023 310.03C556.529 304.584 548.942 299.562 540.556 295.575C534.623 292.754 528.42 290.537 522.551 287.584C521.548 285.862 520.618 284.177 520.159 282.213C518.932 276.953 520.575 271.319 516.441 266.973C512.683 263.022 506.576 262.69 502.647 258.63C499.316 255.188 498.848 250.96 498.948 246.424C500.357 240.326 504.216 238.524 507.987 234.205C510.588 231.227 510.605 228.778 510.387 225.053C506.962 219.211 500.454 217.067 494.95 213.669C500.088 207.988 508.244 201.752 508.949 193.533L509.17 190.828Z"/>
	<path fill="#FAFDAA" d="M510.387 225.053C511.886 226.08 513.448 227.065 514.881 228.179C515.059 232.811 514.69 236.352 511.299 239.89C508.021 243.31 503.381 245.069 498.948 246.424C500.357 240.326 504.216 238.524 507.987 234.205C510.588 231.227 510.605 228.778 510.387 225.053Z"/>
	<path fill="#00AD56" d="M543.111 265.171C544.47 265.256 545.783 265.364 547.044 265.92C549.061 266.809 550.74 268.374 551.454 270.495C552.088 272.378 551.832 274.426 550.877 276.153C549.491 278.657 546.956 280.044 544.286 280.789C542.316 280.91 540.646 280.865 538.912 279.823Q538.587 279.631 538.283 279.407Q537.979 279.183 537.698 278.93Q537.418 278.677 537.165 278.397Q536.912 278.117 536.688 277.812Q536.465 277.508 536.273 277.183Q536.081 276.858 535.923 276.515Q535.765 276.172 535.642 275.815Q535.519 275.458 535.433 275.09Q535.339 274.695 535.287 274.292Q535.235 273.889 535.225 273.483Q535.215 273.077 535.249 272.673Q535.282 272.268 535.357 271.869Q535.432 271.47 535.549 271.081Q535.666 270.692 535.823 270.317Q535.98 269.943 536.175 269.587Q536.37 269.231 536.602 268.897C538.16 266.637 540.472 265.576 543.111 265.171Z"/>
	<path fill="#FE973C" d="M555.508 469.88Q570.424 469.337 585.35 469.447C604.876 469.468 620.393 469.317 636.503 482.342C649.201 492.608 654.899 506.892 656.598 522.793C647.466 526.578 638.923 533.924 629.134 535.896C626.438 545.089 621.502 552.357 612.915 556.989C603.077 562.295 592.096 562.56 581.189 562.1L581.123 542.817L555.517 542.064L555.508 469.88Z"/>
	<path fill="#000140" d="M581.07 491.726C587.391 491.727 593.84 491.487 600.119 492.304C609.201 493.485 618.194 497.439 623.808 504.916C630.421 513.725 630.68 525.431 629.134 535.896C626.438 545.089 621.502 552.357 612.915 556.989C603.077 562.295 592.096 562.56 581.189 562.1L581.123 542.817L581.07 491.726Z"/>
	<path fill="#FE2F86" d="M210.612 88.1796C210.819 87.987 211.023 87.7906 211.239 87.6089C218.031 81.9149 226.711 77.4433 234.37 72.9852Q236.717 71.6219 239.089 70.3051Q241.462 68.9883 243.861 67.7184Q246.259 66.4485 248.682 65.226Q251.105 64.0036 253.551 62.829Q255.998 61.6544 258.467 60.5282Q260.936 59.402 263.426 58.3246Q265.917 57.2472 268.429 56.219Q270.94 55.1908 273.471 54.2121Q276.002 53.2335 278.552 52.3049Q281.102 51.3763 283.67 50.498Q286.238 49.6197 288.822 48.7921Q291.406 47.9645 294.007 47.1879Q296.607 46.4113 299.222 45.6861Q301.837 44.9608 304.466 44.2871Q307.095 43.6134 309.736 42.9915Q312.378 42.3696 315.031 41.7999Q317.684 41.2301 320.348 40.7126Q323.012 40.1952 325.686 39.7302Q328.359 39.2652 331.041 38.853Q333.724 38.4407 336.413 38.0813Q339.103 37.7218 341.8 37.4154Q344.496 37.1089 347.198 36.8556Q349.9 36.6023 352.606 36.4021Q355.312 36.202 358.022 36.0551Q360.732 35.9083 363.444 35.8147Q366.156 35.7212 368.869 35.6811Q371.583 35.6409 374.296 35.6542Q377.01 35.6674 379.723 35.734Q382.436 35.8006 385.147 35.9206Q387.858 36.0406 390.566 36.2139Q393.274 36.3872 395.979 36.6137Q398.683 36.8402 401.382 37.1199Q405.009 37.4581 408.626 37.8916Q412.244 38.325 415.848 38.8535Q419.453 39.3819 423.042 40.0049Q426.631 40.6279 430.203 41.3451Q433.775 42.0623 437.327 42.8732Q440.878 43.684 444.407 44.588Q447.937 45.492 451.441 46.4884Q454.945 47.4848 458.422 48.5731Q461.898 49.6613 465.345 50.8406Q468.792 52.0199 472.207 53.2894Q475.622 54.5589 479.002 55.9178Q482.382 57.2766 485.726 58.7239Q489.069 60.1712 492.373 61.7059Q495.677 63.2405 498.94 64.8616Q502.202 66.4826 505.421 68.1888Q508.64 69.8951 511.813 71.6854C516.159 74.1624 525.318 79.0315 528.337 82.7465L528.461 83.3197C530.199 82.9171 531.843 82.2292 533.581 81.8315C541.179 80.0939 547.644 80.8944 554.26 85.0317C567.168 93.1043 591.176 113.929 599.25 126.744C601.79 130.776 603.467 135.533 604.493 140.167Q604.889 141.989 605.226 143.823C591.391 143.477 581.57 144.4 569.108 151.018C561.125 142.511 554.344 133.248 545.849 125.154C500.471 81.9197 442.642 55.7925 379.672 53.9397C362.156 53.4243 342.542 55.3316 325.464 59.2781C286.52 68.2774 238.624 92.3501 209.556 120.003C204.703 124.619 199.461 129.337 195.412 134.693C187.126 130.034 179.083 126.81 169.903 124.356C176.197 118.153 183.832 112.963 189.672 106.36C190.007 103.514 189.867 99.9603 192.236 97.9861C196.661 94.2969 205.254 91.521 210.612 88.1796Z"/>
	<path fill="#FEFEF2" d="M569.742 137.399C570.92 137.565 572.089 138.097 572.787 139.106C573.328 139.887 573.454 140.837 573.264 141.752C572.989 143.072 572.234 143.647 571.175 144.344C570.173 144.205 569.398 144.086 568.584 143.443C567.951 142.945 567.608 142.301 567.552 141.504C567.421 139.625 568.557 138.658 569.742 137.399Z"/>
	<path fill="#FEFEF2" d="M562.658 113.796C564.591 115.734 566.388 117.56 568.492 119.333C566.584 120.711 564.923 122.285 563.224 123.908C561.242 122.608 559.512 120.315 557.89 118.567C559.727 117.111 561.205 115.631 562.658 113.796Z"/>
	<path fill="#FEFEF2" d="M196.395 119.493C197.648 120.757 199.63 122.328 200.326 123.966C200.608 124.63 200.671 125.378 200.373 126.036C199.745 127.419 197.952 128.069 196.651 128.614C195.425 128.394 193.818 127.975 192.925 127.043C192.321 126.413 192.018 125.599 192.132 124.728C192.455 122.274 194.587 120.86 196.395 119.493Z"/>
	<path fill="#FEE0F4" d="M547 100.818C549.098 102.292 551.258 105.456 553.015 107.407C551.421 108.677 549.854 109.97 548.124 111.051C545.614 110.806 543.327 107.992 541.535 106.289C543.512 104.618 545.478 102.926 547 100.818Z"/>
	<path fill="#FEFEF2" d="M213.487 104.148C215.777 105.699 217.468 108.354 219.08 110.547C217.258 111.746 215.5 113.062 213.723 114.329L212.907 114.506C211.518 114.171 209.609 111.571 208.515 110.441C209.942 108.092 211.349 105.913 213.487 104.148Z"/>
	<path fill="#FEFEF2" d="M210.612 88.1796C210.819 87.987 211.023 87.7906 211.239 87.6089C218.031 81.9149 226.711 77.4433 234.37 72.9852Q236.717 71.6219 239.089 70.3051Q241.462 68.9883 243.861 67.7184Q246.259 66.4485 248.682 65.226Q251.105 64.0036 253.551 62.829Q255.998 61.6544 258.467 60.5282Q260.936 59.402 263.426 58.3246Q265.917 57.2472 268.429 56.219Q270.94 55.1908 273.471 54.2121Q276.002 53.2335 278.552 52.3049Q281.102 51.3763 283.67 50.498Q286.238 49.6197 288.822 48.7921Q291.406 47.9645 294.007 47.1879Q296.607 46.4113 299.222 45.6861Q301.837 44.9608 304.466 44.2871Q307.095 43.6134 309.736 42.9915Q312.378 42.3696 315.031 41.7999Q317.684 41.2301 320.348 40.7126Q323.012 40.1952 325.686 39.7302Q328.359 39.2652 331.041 38.853Q333.724 38.4407 336.413 38.0813Q339.103 37.7218 341.8 37.4154Q344.496 37.1089 347.198 36.8556Q349.9 36.6023 352.606 36.4021Q355.312 36.202 358.022 36.0551Q360.732 35.9083 363.444 35.8147Q366.156 35.7212 368.869 35.6811Q371.583 35.6409 374.296 35.6542Q377.01 35.6674 379.723 35.734Q382.436 35.8006 385.147 35.9206Q387.858 36.0406 390.566 36.2139Q393.274 36.3872 395.979 36.6137Q398.683 36.8402 401.382 37.1199Q405.009 37.4581 408.626 37.8916Q412.244 38.325 415.848 38.8535Q419.453 39.3819 423.042 40.0049Q426.631 40.6279 430.203 41.3451Q433.775 42.0623 437.327 42.8732Q440.878 43.684 444.407 44.588Q447.937 45.492 451.441 46.4884Q454.945 47.4848 458.422 48.5731Q461.898 49.6613 465.345 50.8406Q468.792 52.0199 472.207 53.2894Q475.622 54.5589 479.002 55.9178Q482.382 57.2766 485.726 58.7239Q489.069 60.1712 492.373 61.7059Q495.677 63.2405 498.94 64.8616Q502.202 66.4826 505.421 68.1888Q508.64 69.8951 511.813 71.6854C516.159 74.1624 525.318 79.0315 528.337 82.7465C526.804 84.8215 523.987 86.2282 521.471 86.6717C516.262 87.5898 503.018 77.6193 497.447 74.792C457.131 54.332 416.77 44.5819 371.483 44.6427C360.765 44.657 350.038 44.8882 339.407 46.3927C314.4 49.9317 289.753 57.8115 266.696 68.0133Q253.457 73.8814 241.003 81.2728C234.019 85.5061 227.221 90.3292 219.98 94.097C216.612 92.7301 212.48 91.5363 210.612 88.1796Z"/>
	<path fill="#FEFEF2" d="M481.921 310.327C502.436 309.46 521.369 314.949 539.037 325.114C532.704 333.393 525.744 341.382 518.891 349.237C503.532 342.835 489.21 338.827 472.577 343.254C459.833 346.646 448.578 354.561 441.952 366.073C434.503 379.015 433.128 398.122 436.976 412.383C439.765 422.719 446.12 432.025 455.564 437.322C466.334 443.361 480.132 443.724 491.801 440.343C501.23 437.612 513.08 431.015 517.949 422.112L517.925 408.411C503.926 407.845 489.794 408.359 475.776 408.23L475.652 377.421C486.441 377.231 497.262 377.405 508.055 377.407L549.231 377.466L549.201 430.341C546.297 433.732 543.516 437.227 540.585 440.594C523.379 460.359 502.628 470.527 476.432 472.227C457.261 473.472 436.673 467.088 422.243 454.291C407.483 441.2 399.98 424.009 398.892 404.449C397.536 380.062 402.409 356.928 419.235 338.331C435.518 320.335 458.028 311.443 481.921 310.327Z"/>
	<path fill="#A6BCDF" d="M523.719 399.177L543.191 399.206C542.978 405.247 543.103 411.322 543.132 417.367C543.146 420.405 543.489 423.828 542.919 426.809C541.488 434.28 523.882 450.393 517.366 454.493C498.818 466.161 475.164 469.647 453.89 464.804C436.07 460.746 422.374 449.384 412.821 434.187C406.681 423.077 406.155 414.294 406.114 401.921C413.895 401.618 421.746 401.774 429.536 401.747C430.463 414.201 434.37 425.854 443.317 434.903C452.323 444.014 465.305 447.69 477.849 447.657C494.048 447.615 507.624 441.862 518.957 430.383C520.47 428.851 521.982 427.113 522.751 425.075C524.685 419.951 523.746 405.3 523.719 399.177Z"/>
	<path fill="#FEFEF2" d="M208.158 146.236C221.305 131.744 236.919 119.524 253.504 109.177C287.933 87.6963 326.272 74.3786 366.962 72.366C407.928 70.3398 452.52 82.7395 488.111 102.707C505.041 112.206 521.363 124.313 535.717 137.362Q541.612 142.638 546.82 148.594Q552.027 154.55 556.468 161.097L553.353 166.361C548.005 161.721 543.341 155.941 538.178 151.035C523.362 136.955 495.223 113.547 476.067 106.143C481.733 112.012 485.946 118.572 488.664 126.271C488.66 127.394 488.906 128.313 488.057 129.183C487.338 129.92 485.25 130.993 484.248 131.155C483.674 128.339 482.939 125.863 481.712 123.261C479.477 118.515 471.712 106.737 467.315 103.947C465.947 103.078 464.311 102.642 462.721 103.116C461.156 103.582 459.417 104.96 458.689 106.436C457.921 107.995 458.216 109.743 458.813 111.304C460.81 116.528 472.739 128.563 470.865 133.081C470.379 134.252 469.368 134.938 468.217 135.368C467.355 135.691 466.432 135.87 465.533 136.058C461.517 134.89 448.883 135.479 444.162 135.446L375.173 135.573L340.425 135.368C335.024 135.374 329.494 135.138 324.11 135.544C323.936 134.964 323.744 134.385 323.586 133.801C323.115 132.057 322.625 131.005 321.551 129.525Q320.17 127.838 318.582 126.344C309.001 117.195 299.563 123.069 288.465 123.229C287.233 123.246 285.745 123.378 284.799 122.461C283.459 119.28 288.446 108.007 289.141 103.464C287.222 102.787 285.503 102.433 283.574 103.317C278.749 105.53 274.983 112.66 273.406 117.521C272.207 121.218 271.75 125.558 273.662 129.102C275.054 131.683 277.844 133.416 280.596 134.202C288.922 136.582 306.349 129.866 310.466 137.038C310.954 137.888 311.166 138.811 311.372 139.759C309.051 151.651 292.093 154.464 287.535 170.142C282.088 168.956 276.708 168.257 271.16 167.806C264.308 159.277 254.862 153.09 243.828 151.945C233.741 150.898 224.154 153.556 214.219 154.42C212.357 151.548 210.294 148.905 208.158 146.236Z"/>
	<path fill="#B9FA09" d="M214.219 154.42C214.247 154.316 214.273 154.211 214.302 154.107C216.259 147.138 241.843 127.55 248.577 122.735C255.784 117.583 263.808 112.27 271.506 107.93C269.822 112.201 267.554 116.292 266.87 120.89C266.219 125.261 267.064 129.194 269.776 132.736C277.574 142.919 288.929 139.88 299.837 139.207C303.766 138.964 307.478 139.226 311.372 139.759C309.051 151.651 292.093 154.464 287.535 170.142C282.088 168.956 276.708 168.257 271.16 167.806C264.308 159.277 254.862 153.09 243.828 151.945C233.741 150.898 224.154 153.556 214.219 154.42Z"/>
	<path fill="#04D6FB" d="M289.141 103.464C290.584 104.152 293.003 105.666 294.546 105.676C295.368 105.173 295.708 104.711 296.694 104.884C297.926 106.202 298.715 107.993 300.751 107.965C303.034 107.934 320.623 99.2095 324.69 97.6554C357.84 84.9896 402.017 86.0761 435.128 98.4156C422.929 102.429 411.821 106.466 402.476 115.638C395.305 114.828 381.926 115.041 375.027 116.969Q373.562 117.38 372.203 118.063Q370.844 118.747 369.641 119.678C366.419 122.16 364.743 125.238 363.776 129.114C349.767 130.093 335.549 128.44 321.551 129.525Q320.17 127.838 318.582 126.344C309.001 117.195 299.563 123.069 288.465 123.229C287.233 123.246 285.745 123.378 284.799 122.461C283.459 119.28 288.446 108.007 289.141 103.464Z"/>
	<path fill="#FEFEF2" d="M337.305 107.697C337.691 107.755 337.937 107.781 338.299 107.867C339.564 108.169 340.542 108.668 341.221 109.786C341.288 110.922 341.219 111.443 340.578 112.408C339.424 114.144 337.372 114.553 335.456 114.834C333.646 114.101 332.093 113.562 331.051 111.83C330.939 110.819 330.834 110.493 331.475 109.619C332.683 107.974 335.467 107.835 337.305 107.697Z"/>
	<path fill="#FEFEF2" d="M184.503 337.624L246.498 337.637C256.172 337.633 270.413 336.597 279.477 338.349C288.827 340.157 296.991 345.217 302.334 353.167C308.385 362.17 309.736 373.358 307.539 383.86C305.596 393.148 300.082 400.83 292.151 405.976Q293.549 406.651 294.887 407.437C303.787 412.753 309.576 421.408 311.965 431.415C314.919 443.791 312.022 456.723 305.402 467.395C303.21 470.821 300.403 473.95 297.375 476.656Q296.171 477.736 294.903 478.74Q293.635 479.744 292.308 480.668Q290.982 481.593 289.601 482.435Q288.22 483.276 286.79 484.032Q285.36 484.788 283.887 485.455Q282.414 486.122 280.903 486.697Q279.391 487.273 277.848 487.755Q276.304 488.237 274.734 488.624C260.522 492.01 244.228 490.26 229.707 489.576L184.496 487.122L184.503 337.624Z"/>
	<path fill="#000140" d="M220.279 364.508L248.028 364.492C252.994 364.494 258.742 363.932 263.613 364.962C265.446 365.35 267.097 366.216 268.588 367.335C271.773 369.726 274.081 373.435 274.636 377.394C275.507 383.606 274.172 388.639 270.369 393.619C268.416 395.544 266.331 397.102 263.629 397.781C258.191 399.148 251.172 398.328 245.571 398.299L220.281 398.271L220.279 364.508Z"/>
	<path fill="#000140" d="M220.561 424.793L248.978 424.778C254.689 424.773 260.848 424.318 266.472 425.374C269.101 425.867 271.555 426.743 273.584 428.552C276.63 431.267 278.276 435.302 278.442 439.336C278.679 445.081 276.616 450.417 272.703 454.591C270.098 456.824 267.281 458.349 263.932 459.148C259.186 460.28 253.842 459.864 248.993 459.85C239.446 459.821 229.912 459.491 220.367 459.452C220.659 447.916 220.463 436.335 220.561 424.793Z"/>
	<path fill="#A6BCDF" d="M191.159 418.16C198.922 418.273 206.705 418.14 214.47 418.11L214.357 465.085C222.73 465.718 231.306 465.672 239.704 465.788C247.626 465.897 256.759 466.759 264.506 465.001Q266.107 464.63 267.654 464.075Q269.2 463.519 270.671 462.786Q272.143 462.053 273.518 461.153Q274.893 460.253 276.153 459.198C281.008 455.094 284.095 448.787 284.535 442.452C285.068 434.78 281.86 427.74 276.929 422.031C282.419 421.745 293.906 420.54 298.762 422.964C303.058 425.109 304.676 429.578 306.121 433.824C306.885 437.737 307.228 441.556 306.949 445.539C306.178 456.543 300.869 466.258 292.579 473.379C287.712 477.559 282.071 480.732 275.837 482.326C263.736 485.419 250.081 484.394 237.671 483.955C222.109 483.403 206.631 482.315 191.103 481.165L191.159 418.16Z"/>
	<defs>
		<linearGradient id="gradient_5" gradientUnits="userSpaceOnUse" x1="398.07993" y1="295.40326" x2="405.54272" y2="133.90251">
			<stop offset="0" stop-color="#00ADE2"/>
			<stop offset="1" stop-color="#01DBFF"/>
		</linearGradient>
	</defs>
	<path fill="url(#gradient_5)" d="M324.11 135.544C329.494 135.138 335.024 135.374 340.425 135.368L375.173 135.573L444.162 135.446C448.883 135.479 461.517 134.89 465.533 136.058C459.809 137.942 454.975 141.347 452.233 146.87C449.433 152.511 449.707 160.145 451.822 165.972C453.975 171.905 458.358 176.965 464.149 179.563C469.42 181.928 475.388 181.91 481.056 182.286C484.611 182.576 488.269 182.722 491.194 185.028C491.87 185.741 492.576 186.379 492.602 187.434C492.641 189.065 491.46 190.732 490.415 191.907C485.507 198.081 479.576 205.17 480.658 213.658Q480.754 214.358 480.909 215.047Q481.064 215.736 481.277 216.409Q481.491 217.082 481.761 217.735Q482.031 218.387 482.356 219.014Q482.681 219.641 483.059 220.238Q483.436 220.835 483.864 221.397Q484.291 221.959 484.764 222.483Q485.238 223.007 485.755 223.488Q490.982 226.265 496.157 229.136C490.132 234.782 486.069 239.719 485.841 248.335C485.689 254.089 487.057 258.641 490.058 263.503C486.547 264.792 481.961 264.125 478.223 264.832C467.441 266.871 453.429 272.919 444.229 278.888C442.883 285.44 441.774 292.342 441.322 299.019L439.846 300.19C437.975 296.661 437.726 288.155 437.219 284.032C413.113 290.654 391.796 294.672 366.667 294.603C363.989 294.596 358.261 295.106 355.997 293.725C355.867 293.645 355.744 293.555 355.617 293.47L358.802 288.865C360.041 288.146 360.873 287.291 361.839 286.249C368.379 279.192 376.517 268.442 378.584 258.838C378.98 257 378.843 255.069 378.767 253.203C370.3 237.449 339.146 247.167 330.662 242.291C329.873 241.837 329.285 241.156 329.157 240.226C328.334 234.238 338.926 229.784 342.121 226C345.887 221.541 347.587 213.742 347.144 208.034C347.133 207.894 347.118 207.754 347.106 207.614C347.393 205.009 347.25 202.324 347.223 199.703C352.225 196.157 357.719 193.578 361.998 189.042C365.968 184.832 367.656 179.889 367.449 174.153C367.255 168.761 364.926 163.836 360.966 160.172C349.881 149.912 334.912 157.041 322.722 160.66C317.633 162.171 312.558 163.287 307.241 163.532C310.571 160.618 314.07 157.719 316.982 154.381C322.042 148.583 324.638 143.319 324.11 135.544Z"/>
	<path fill="#04ADEF" d="M481.056 182.286C484.611 182.576 488.269 182.722 491.194 185.028C490.82 185.174 490.404 185.387 490.003 185.435C487.745 185.702 482.778 183.698 481.056 182.286Z"/>
	<path fill="#FEFEF2" d="M420.839 147.287C421.333 147.319 421.819 147.345 422.305 147.45C425.742 148.2 428.12 150.891 430.027 153.644C427.958 155.784 425.907 157.712 423.251 159.108C418.273 158.187 413.316 157.044 408.356 156.02Q401.695 154.722 394.972 153.792C402.793 151.69 413.107 148.322 420.839 147.287Z"/>
	<path fill="#FEFEF2" d="M485.755 223.488C485.628 223.508 485.502 223.536 485.375 223.549C482.403 223.839 478.986 221.992 476.856 220.069C473.544 217.079 468.049 210.192 468.008 205.719C467.985 203.136 469.157 200.722 470.957 198.911C474.832 195.014 484.911 191.987 490.415 191.907C485.507 198.081 479.576 205.17 480.658 213.658Q480.754 214.358 480.909 215.047Q481.064 215.736 481.277 216.409Q481.491 217.082 481.761 217.735Q482.031 218.387 482.356 219.014Q482.681 219.641 483.059 220.238Q483.436 220.835 483.864 221.397Q484.291 221.959 484.764 222.483Q485.238 223.007 485.755 223.488Z"/>
	<path fill="#FEFEF2" d="M422.203 178.375C430.705 178.242 439.036 178.619 447.487 179.583Q420.38 184.266 393.006 186.986C385.38 187.533 377.477 189.215 369.849 188.142C370.388 185.33 369.809 181.636 372.052 179.494C372.577 178.993 372.895 178.91 373.606 178.824C378.871 178.186 384.679 178.64 389.994 178.618L422.203 178.375Z"/>
	<path fill="#FEFEF2" d="M415.813 212.774C421.547 211.251 427.179 209.526 432.827 207.719C437.13 206.342 442.018 204.262 446.502 203.826C448.082 203.672 449.647 204.075 451.064 204.769C452.763 205.601 454.602 207.066 455.146 208.962C455.406 209.871 455.247 210.832 454.786 211.648C452.949 214.892 447.686 215.728 444.345 216.658C443.965 215.902 443.632 215.171 442.962 214.625C442.405 214.17 442.462 214.293 441.81 214.34C441.748 214.473 441.671 214.599 441.625 214.738C440.46 218.213 444.157 235.732 445.395 239.738C446.383 242.936 447.597 245.781 449.239 248.697C457.234 250.074 465.911 252.719 474.188 254.313C466.16 257.564 457.871 259.682 449.797 262.71C446.898 267.777 445.398 273.206 444.229 278.888C442.883 285.44 441.774 292.342 441.322 299.019L439.846 300.19C437.975 296.661 437.726 288.155 437.219 284.032C436.05 276.234 433.343 270.088 429.565 263.259C426.555 261.826 423.108 261.015 419.914 260.053Q411.563 257.599 403.269 254.96C408.494 253.646 413.729 252.283 418.993 251.143C422.497 250.384 426.041 249.888 429.503 248.94C436.894 239.481 437.945 225.109 439.246 213.586C431.434 213.233 423.628 213.21 415.813 212.774Z"/>
</svg>
